<?xml version="1.0" encoding="UTF-8"?><svg id="_レイヤー_2" xmlns="http://www.w3.org/2000/svg" viewBox="0 0 556.74 87.4"><defs><style>.cls-1{fill:#aec7d6;}.cls-2{fill:#eec9c8;}.cls-3{fill:#32363a;}</style></defs><g id="_ヘッダ_x2F_ナビ"><path class="cls-2" d="M29.27,79.98c-1.91,4.93-6.41,7.38-10.65,7.38-8.5,0-13.71-5.62-13.71-14.79,0-6.91,5.04-14.33,13.32-14.33,2.09,0,4.68.68,6.3,1.84.32.22.65.36.86.47.04,0,.97-.72,1.48-1.33.22-.22.43-.29.68-.29.32,0,.65.18.65.61l.36,8.75c-.04.43-.5.68-.9.68-.32,0-.68-.18-.79-.58-1.48-5.33-3.28-8.46-8.24-8.46-3.82,0-7.85,3.89-7.85,12.53,0,6.66,2.81,12.2,8.64,12.2,2.88,0,6.12-1.15,8.31-5.36.18-.25.4-.32.65-.32.43,0,.94.29.94.79,0,.07,0,.11-.04.14v.07Z"/><path class="cls-2" d="M55.78,83.76c-.65,2.23-2.34,3.56-4.28,3.56-1.62,0-2.77-1.04-3.17-2.12-1.08,1.3-2.48,2.2-4.79,2.2s-5.69-1.19-5.69-5.08c0-3.6,2.7-5.47,10.19-6.48.04,0,.07-.11.07-.18.04-.36.04-.97.04-1.44,0-3.17-.43-4.93-2.38-4.93-1.19,0-2.27.79-2.27,1.55,0,.14.04.25.11.43.25.4.43,1.04.43,1.48,0,1.91-1.66,2.41-2.56,2.41-1.84,0-2.45-1.19-2.45-2.41,0-2.41,3.02-4.97,7.31-4.97,6.05,0,6.34,4.75,6.34,6.55v.32c-.04,1.76-.18,4.43-.18,7.24,0,2.38.04,2.66.68,2.66.61,0,1.12-.76,1.44-1.44.14-.07.25-.11.4-.11.32,0,.76.22.76.65v.11ZM48.04,77.28h-.04c-2.66.54-5.4,1.22-5.4,4.64,0,2.74,1.08,3.35,2.23,3.35,1.04,0,3.13-.94,3.13-2.52,0-.18-.04-.47-.04-.83,0-1.4.11-3.92.11-4.61v-.04Z"/><path class="cls-2" d="M76.12,86.64c-.47,0-.68-.22-.68-.54,0-.25.18-.58.4-.72,1.26-.04,1.69-.32,1.69-.68,0-.18,0-.25-3.67-5.44-2.09,2.81-3.53,4.9-3.53,5.33,0,.72,1.22.72,2.23.79.29.14.43.43.43.65,0,.32-.25.61-.65.61h-7.02c-.4,0-.61-.29-.61-.58,0-.25.14-.54.4-.68,2.41-.22,3.06-.9,7.77-7.45-.72-.97-4.1-5.83-4.43-6.34l-.54-.76c-.76-1.04-1.69-1.12-2.2-1.15-.32-.14-.47-.4-.47-.65s.18-.58.54-.58h8.39c.43,0,.65.29.65.58,0,.22-.14.5-.4.61-.18,0-.4.04-.58.07-.18,0-.36.04-.5.11-.36.07-.5.22-.5.4,0,.43,2.48,3.82,3.06,4.61,1.12-1.37,2.81-3.85,2.81-4.36,0-.72-1.19-.76-2.09-.83-.25-.07-.36-.4-.36-.61,0-.29.14-.58.61-.58h6.41c.4,0,.61.29.61.58,0,.22-.14.5-.4.61-1.22.07-1.87.4-2.74,1.26-.18.25-.4.5-.61.76l-3.31,4.43,5.15,7.16c1.19,1.58,1.62,2.02,3.06,2.12.32.14.47.43.47.68,0,.29-.18.58-.58.58h-8.82Z"/><path class="cls-2" d="M112.53,83.76c-.65,2.23-2.34,3.56-4.28,3.56-1.62,0-2.77-1.04-3.17-2.12-1.08,1.3-2.48,2.2-4.79,2.2s-5.69-1.19-5.69-5.08c0-3.6,2.7-5.47,10.19-6.48.04,0,.07-.11.07-.18.04-.36.04-.97.04-1.44,0-3.17-.43-4.93-2.38-4.93-1.19,0-2.27.79-2.27,1.55,0,.14.04.25.11.43.25.4.43,1.04.43,1.48,0,1.91-1.66,2.41-2.56,2.41-1.84,0-2.45-1.19-2.45-2.41,0-2.41,3.02-4.97,7.31-4.97,6.05,0,6.33,4.75,6.33,6.55v.32c-.04,1.76-.18,4.43-.18,7.24,0,2.38.04,2.66.68,2.66.61,0,1.12-.76,1.44-1.44.14-.07.25-.11.4-.11.32,0,.76.22.76.65v.11ZM104.79,77.28h-.04c-2.66.54-5.4,1.22-5.4,4.64,0,2.74,1.08,3.35,2.23,3.35,1.04,0,3.13-.94,3.13-2.52,0-.18-.04-.47-.04-.83,0-1.4.11-3.92.11-4.61v-.04Z"/><path class="cls-2" d="M133.03,86.64c-.43,0-.61-.29-.61-.61,0-.29.18-.61.5-.76,2.23-.07,2.38-.86,2.45-1.51.07-.9.18-2.34.18-4v-4.64c0-1.87,0-2.92-.07-3.89-.11-1.3-.25-1.33-2.66-1.33-2.56,0-2.66.29-2.7,1.22-.04.36-.72,11.73-3.31,14.9-.58.68-1.73,1.22-2.77,1.22-1.22,0-3.28-.47-3.28-2.7,0-1.73,1.37-2.45,2.27-2.45,1.01,0,1.87.58,2.09,1.66.04.29.11.9.22.9,1.19,0,2.92-7.63,2.92-12.67,0-2.05-.72-2.2-2.23-2.3-.29-.11-.43-.4-.43-.65,0-.29.22-.58.61-.58h15.87c.43,0,.61.36.61.65,0,.22-.14.5-.43.65-1.8.14-2.02.58-2.09,1.44-.07.97-.07,1.76-.07,3.64v4.93c0,1.55,0,2.81.11,4.1.07.65.22,1.4,2.16,1.44.32.11.5.43.5.72,0,.32-.18.61-.58.61h-9.25Z"/><path class="cls-2" d="M163.64,86.64c-.4,0-.61-.29-.61-.58,0-.32.18-.61.54-.76,2.02-.07,2.09-.32,2.09-5.26v-5.76l-6.55,8.85c0,.22.04.43.04.61.07.72.18,1.51,2.02,1.55.32.11.5.43.5.72,0,.32-.25.61-.65.61h-8.5c-.4,0-.58-.29-.58-.61,0-.29.18-.61.5-.72,1.98-.04,2.2-.32,2.2-5.26v-5c0-1.55,0-2.56-.11-3.92-.04-.61-.11-1.3-1.98-1.37-.32-.11-.5-.43-.5-.68,0-.32.18-.61.58-.61h8.31c.43,0,.65.29.65.61,0,.25-.18.58-.5.68-1.94.07-2.02.32-2.02,5v5.94l6.55-8.85c0-.25,0-.47-.04-.72-.04-.68-.11-1.3-1.91-1.37-.32-.11-.54-.4-.54-.72,0-.29.22-.58.61-.58h8.28c.47,0,.65.32.65.65,0,.25-.11.61-.5.65-1.87.07-1.94.76-2.02,1.51-.07,1.01-.07,1.87-.07,3.49v5.15c0,1.58,0,2.92.07,3.85.07.76.25,1.51,2.16,1.55.32.11.47.43.47.68,0,.32-.18.65-.65.65h-8.49Z"/><path class="cls-2" d="M193.16,86.64c-.4,0-.61-.29-.61-.58,0-.36.22-.65.54-.76,2.02-.11,2.09-.25,2.09-5.26v-2.05c0-.14-.07-.22-.29-.22h-6.05c-.22,0-.25.07-.25.18v2.41c0,4.39.07,4.9,2.09,4.93.32.11.5.43.5.72,0,.32-.25.61-.65.61h-8.5c-.4,0-.61-.29-.61-.58,0-.36.22-.65.54-.76,1.84-.07,1.94-.72,2.02-1.37.11-1.3.18-2.3.18-3.89v-5c0-1.55,0-2.56-.11-3.92-.04-.61-.11-1.3-1.98-1.37-.32-.11-.54-.4-.54-.72,0-.29.22-.58.61-.58h8.31c.43,0,.65.29.65.58s-.18.61-.5.72c-1.98.04-2.02.32-2.02,5v1.26c0,.07.07.18.25.18h6.05c.25,0,.29-.07.29-.18v-1.62c0-4.5,0-4.54-1.98-4.64-.32-.11-.54-.4-.54-.72,0-.29.22-.58.61-.58h8.28c.47,0,.65.32.65.61s-.14.58-.47.68c-1.91.04-1.98.76-2.05,1.51-.07,1.01-.07,1.87-.07,3.49v5.15c0,1.58,0,2.92.07,3.85.07.76.25,1.51,2.16,1.55.32.11.47.43.47.68,0,.32-.18.65-.65.65h-8.49Z"/><path class="cls-1" d="M180.35,21.59c-3.66.73-9.8,1.12-15.05,1.12-1.89.04-3.83.04-5.8.04v-11.82h13.63v-5.16h-13.85v-3.1h17.63v11.22h-13.63v5.76c4.47,0,13.03-.26,16.6-1.12l.47,3.05ZM163.62,36.77v-10.75h3.78v7.61h22.02v3.14h-25.8ZM184.6,27.31V0h3.83v27.3h-3.83Z"/><path class="cls-1" d="M58.77,28.42c-3.35-2.19-7.74-6.88-9.16-11.22-1.29,4.56-5.03,9.33-9.29,12.17l-2.36-2.84c5.68-3.57,9.67-10.1,9.67-17.03V3.22h3.91v6.11c0,7.05,4.21,12.99,9.5,16.25l-2.28,2.84ZM67.92,18.1v19.48h-3.78V0h3.78v14.96h5.85v3.14h-5.85Z"/><path class="cls-1" d="M92.87,8.6v-2.97h22.1v2.97h-22.1ZM103.84,21.46c-5.03,0-8.94-2.11-8.94-5.76s3.83-5.81,8.94-5.81,8.86,2.15,8.86,5.81-3.74,5.76-8.86,5.76ZM98.07,37.45v-8.69h20.25v-2.58h-20.34v-2.92h24.12v8.3h-20.21v2.88h21.54v3.01h-25.37ZM98.55,3.61V.56h10.92v3.05h-10.92ZM103.84,12.77c-2.75,0-5.12,1.03-5.12,2.92s2.41,2.92,5.12,2.92,5.07-1.08,5.07-2.92-2.37-2.92-5.07-2.92ZM122.11,13.2v8.13h-3.78V0h3.78v10.02h5.59v3.18h-5.59Z"/><path class="cls-3" d="M40.44,33.08c.36,0,.9-.12,2.22-.72.78-.3,1.68-.66,2.64-.66.54,0,9.6,1.14,9.6,4.68,0,1.74-1.5,2.82-3.9,2.82-.48,0-.96-.06-1.44-.12-3.12-.54-4.68-.96-7.92-1.02-1.02,0-1.98-.06-3-.06.06,1.2.12,2.4.12,3.6,0,23.22-24.12,29.58-25.2,29.58-.18,0-.54-.06-.54-.42,0-.24.78-.96,2.58-1.98,7.02-3.78,14.16-12.18,15.96-22.08.42-2.28.66-4.8.66-7.74v-.72c-3.06.24-5.94.6-8.7,1.08.12,1.56.24,3.06.42,4.5.12.84.18,2.28.18,3.72,0,4.98-1.2,7.14-3.54,7.14-2.94,0-3.96-4.74-3.96-6.42v-.24c.06-1.14.66-2.52.78-2.76.06-.18.18-.42.18-.66.18-1.08.3-2.46.3-3.96l-2.76.9c-1.2.42-2.1.9-3,1.26s-1.8.66-2.82.66c-2.4,0-9.3-2.76-9.3-6.3,0-.9.6-2.28,1.14-2.28.24,0,.54.18.78.36,1.5,1.2,3.48,2.1,6.9,2.1,1.26,0,2.64-.12,4.2-.36l4.74-.72c-.36-9.3-1.74-9.78-3.84-9.78-.84,0-1.32-.24-1.32-.72,0-.66.96-2.4,3.9-2.4,3.12,0,7.92,1.74,7.92,4.08,0,.54-.18,1.08-.36,1.62-.66,1.62-.66,2.4-.66,6.24,3-.42,5.88-.9,8.64-1.26-.12-3.18-.06-5.88-.24-7.98-.18-2.4-1.02-3.3-2.46-3.48-1.2-.12-1.8-.48-1.8-.9,0-.3.84-2.34,3.84-2.34,1.74,0,8.58,1.86,8.58,4.92,0,.36-.06.66-.18,1.02-.06.36-.24.72-.36,1.08-.72,1.74-.96,3-.96,6.9l1.98-.18Z"/><path class="cls-3" d="M54.66,70.18c-.3,0-.36-.06-.36-.18,0-.24.36-.84,2.16-2.22,9.78-7.74,14.94-24.72,14.94-25.98,0-1.08-.66-1.8-1.92-1.86-.48,0-.9-.06-1.14-.06-.48-.12-.66-.3-.66-.54,0-.3,1.26-2.16,3.78-2.16,2.94,0,9.06,3.12,9.06,5.4,0,.66-.42,1.32-.84,1.92-.24.3-.96,1.32-1.32,2.1-9.6,20.82-23.52,23.58-23.7,23.58ZM96.78,62.02c-1.8-6.24-4.26-14.34-12.3-22.5-1.08-1.08-1.68-1.92-1.68-2.34,0-.24.24-.36.42-.36.48,0,1.44.42,2.76,1.2,12.9,7.38,19.56,16.92,19.56,22.08,0,4.02-2.28,6.54-4.56,6.54-2.16,0-3.6-2.46-4.2-4.62Z"/><path class="cls-3" d="M119.46,27.27c-.66,0-1.02-.3-1.02-.78s.9-2.52,4.14-2.52c1.8,0,7.98,1.38,7.98,4.14,0,.54-.18,1.14-.36,1.8-.3.9-1.02,3.18-1.02,8.46,0,2.52.12,4.98.24,6.96.06.96.18,2.28.18,3.66,0,2.1-.3,6.36-3.66,6.36s-4.44-6.66-4.44-7.32c0-.78,0-1.02,1.2-3.78.36-1.14.54-1.92.54-6.24,0-8.7-.96-10.74-3.42-10.74h-.36ZM139.38,41.85c-.06-2.7-.06-7.44-.12-9.6,0-5.58-.36-7.62-2.88-7.74-1.38-.06-1.86-.48-1.86-.9,0-.9,1.8-2.52,4.26-2.52s9.06,2.58,9.06,5.22c0,.3-.06.66-.18,1.02-.06.36-.18.72-.3,1.14-1.08,2.82-1.14,5.28-1.14,6.66,0,2.64.36,5.34.36,8.22,0,23.76-23.7,31.26-26.58,31.26-.42,0-.6-.24-.6-.36,0-.3.78-.96,2.52-1.86,10.26-5.04,17.46-17.76,17.46-30.06v-.48Z"/><path class="cls-3" d="M175.62,44.75c-3.12-4.62-6.9-7.5-9.06-8.64-1.08-.6-1.56-1.08-1.56-1.38,0-.48,2.52-.66,2.7-.66,5.58,0,15.72,2.04,15.72,8.52,0,2.64-1.8,4.62-3.96,4.62-1.38,0-2.7-.72-3.84-2.46ZM181.32,69.64c-.36.3-.72.66-1.08.9-.66.6-1.44,1.02-2.58,1.02-2.76,0-10.92-4.32-10.92-8.4,0-1.14.72-2.88,1.56-2.88.54,0,1.08.54,1.62,1.26.9,1.14,2.22,1.62,3.78,1.62,7.68,0,27.66-16.92,34.74-26.22,1.26-1.68,2.16-2.76,2.7-2.76.3,0,.36.3.36.48s-2.94,16.14-29.04,34.02c-.42.3-.78.66-1.14.96Z"/><path class="cls-3" d="M265.98,32.42c-.54.12-.96.24-1.2.36-2.82,1.74-8.52,4.68-12.78,6.84-.24.48-.54.96-.9,1.56-.3.6-.66,1.32-.96,2.1-9,24.42-25.74,28.14-26.46,28.14-.18,0-.48-.06-.48-.42,0-.24.72-.96,2.22-1.92,12.24-7.92,17.52-27.24,17.52-29.7,0-1.56-1.02-2.4-2.46-2.52-1.02-.06-1.8-.3-1.8-.84,0-.72,1.56-2.58,4.44-2.58,2.46,0,6.54,1.56,8.46,3.06,4.32-3.9,7.14-8.04,7.14-8.7,0-.42-.48-.9-1.08-.9h-.18c-4.32.42-8.22,1.32-11.82,2.28-3.6,1.02-6.9,2.16-10.14,3.12-1.14.3-2.04.54-3,.54-3.12,0-9-3.84-9-7.44,0-1.44.9-2.4,1.32-2.4.18,0,.36.12.48.24.18.06.3.24.54.42,1.98,1.86,3.96,2.34,6.06,2.34,1.14,0,2.34-.12,3.54-.24,4.02-.36,12.9-2.04,20.28-2.64.84-.06,1.5-.48,2.16-.9.72-.48,1.38-.9,2.28-.9,2.22,0,9.96,5.46,9.96,8.34,0,1.26-1.2,1.86-2.4,2.28l-1.74.48Z"/><path class="cls-3" d="M292.02,44.75c-3.12-4.62-6.9-7.5-9.06-8.64-1.08-.6-1.56-1.08-1.56-1.38,0-.48,2.52-.66,2.7-.66,5.58,0,15.72,2.04,15.72,8.52,0,2.64-1.8,4.62-3.96,4.62-1.38,0-2.7-.72-3.84-2.46ZM297.72,69.64c-.36.3-.72.66-1.08.9-.66.6-1.44,1.02-2.58,1.02-2.76,0-10.92-4.32-10.92-8.4,0-1.14.72-2.88,1.56-2.88.54,0,1.08.54,1.62,1.26.9,1.14,2.22,1.62,3.78,1.62,7.68,0,27.66-16.92,34.74-26.22,1.26-1.68,2.16-2.76,2.7-2.76.3,0,.36.3.36.48s-2.94,16.14-29.04,34.02c-.42.3-.78.66-1.14.96Z"/><path class="cls-3" d="M375.96,33.08c-.72.84-1.5,1.8-2.1,3.3-7.02,18-18.12,27.84-31.26,32.4-1.98.66-3.3,1.08-3.78,1.08-.18,0-.42-.12-.42-.36,0-.18,1.08-1.02,3.24-2.22,16.26-9.18,25.8-33.06,25.8-38.64,0-1.8-.6-2.82-2.1-2.88-1.14-.06-1.68-.42-1.68-.84,0-.84,1.92-1.98,3.66-1.98,4.5,0,9.96,5.7,9.96,7.74,0,.72-.36,1.32-.84,1.8-.12.24-.3.42-.48.6ZM344.76,40.64c-.96-4.74-2.22-9-5.28-12.72-.72-.9-1.08-1.44-1.08-1.68,0-.36.36-.42.54-.42,1.98,0,14.28,5.46,14.28,13.38,0,3.3-2.28,5.58-4.56,5.58-1.68,0-3.3-1.26-3.9-4.14Z"/><path class="cls-3" d="M429,41.81c-.6.72-1.26,1.5-1.5,2.46-.72,2.58-2.76,10.44-4.02,16.08,1.62.66,2.76,2.04,2.76,3.36,0,1.5-1.44,2.58-4.44,2.58-.66,0-1.32,0-2.16-.12-1.32-.18-2.88-.24-4.5-.24-4.8,0-9.9.6-11.4.78h-.36c-.6,0-1.14-.12-1.74-.3-.18,1.8-1.02,3.42-3.06,3.42-.66,0-1.38-.24-1.92-.9-.18-.18-2.4-3.78-2.4-6.84,0-.9.18-1.98.24-2.94v-1.62c0-4.02-.36-8.58-1.32-14.64-.48-2.94-1.32-4.38-3.24-4.38h-.42c-.78,0-1.32-.18-1.32-.78s1.02-2.52,3.42-2.52,6.6,1.5,7.74,3.12c.54.06,1.02.12,1.44.12,1.56,0,11.64-1.14,15.9-1.74.3-.06.54-.18.9-.36.3-.24.6-.54.96-.78.66-.54,1.38-1.14,2.28-1.14.3,0,9.3,2.58,9.3,5.22,0,.6-.36,1.14-.72,1.62l-.42.54ZM400.14,43.67c0,5.4.96,12.9,1.44,18.3.6.06.96.06,1.2.06,2.94-.24,9.6-.9,14.64-1.56.9-7.08,1.74-18.18,1.74-18.6,0-.66-.36-.9-.96-.9-.84,0-7.86.78-16.44,2.34-.18.06-.36.06-.54.06-.36,0-.72-.06-1.08-.18v.48Z"/><path class="cls-3" d="M458.46,46.76c-2.34-2.46-6.24-4.92-8.76-5.94-1.38-.54-1.98-1.02-1.98-1.26,0-.36,1.14-1.38,6.18-1.38,9.18,0,11.4,3.9,11.4,6.48,0,2.1-1.38,3.84-3.36,3.84-1.08,0-2.28-.54-3.48-1.74ZM467.28,65.06c-1.08,1.08-2.16,2.16-3.84,2.16-3.72,0-10.74-5.28-10.74-8.58,0-1.68,1.44-2.76,1.8-2.76.48,0,.96.54,1.5,1.32.72.9,2.16,1.5,3.84,1.5,1.32,0,2.82-.36,4.2-1.08,10.98-5.46,25.62-19.26,30.84-25.98,1.44-1.86,2.4-3.06,2.94-3.06.36,0,.42.36.42.54,0,.72-3.72,15.96-29.82,34.92-.42.3-.78.66-1.14,1.02ZM455.1,26.66c0-.6,3.06-.84,3.9-.84,4.08,0,13.08.78,13.08,6.78,0,2.28-1.44,4.02-3.42,4.02-1.14,0-2.28-.6-3.36-1.86-3.42-4.14-6.48-5.94-8.7-6.9-1.08-.54-1.5-.9-1.5-1.2ZM487.44,27.8c-1.74-2.46-3.66-4.08-5.4-4.74-.84-.36-1.2-.78-1.2-1.08,0-.24.72-.78,2.7-.78s8.7.96,8.7,5.22c0,1.5-1.02,2.94-2.4,2.94-.84,0-1.68-.48-2.4-1.56ZM493.38,23.48c-1.8-2.4-3.54-3.72-5.64-4.62-.9-.42-1.2-.78-1.2-1.08,0-.48,1.56-.72,2.7-.72,6.3,0,8.76,2.22,8.76,4.86,0,1.5-.96,3-2.34,3-.78,0-1.56-.42-2.28-1.44Z"/><path class="cls-3" d="M544.56,40.58c.66-.06,1.68-.06,2.76-.06,7.92,0,9.42,1.44,9.42,2.88,0,3.36-6.12,3.54-12.06,3.66-17.22.3-22.32.6-24.96,1.08-1.14.24-2.28.36-2.64.36-3.84,0-7.98-5.46-7.98-8.46,0-.54.66-2.34,1.32-2.34.3,0,.54.24.78.6,2.34,2.94,3.54,3.06,8.88,3.06,4.86-.06,18.78-.54,24.48-.78Z"/></g></svg>