<?xml version="1.0" encoding="UTF-8"?><svg id="_レイヤー_2" xmlns="http://www.w3.org/2000/svg" viewBox="0 0 393.41 144.83"><defs><style>.cls-1{fill:#aec7d6;}.cls-2{fill:#eec9c8;}.cls-3{fill:#615f5f;}</style></defs><g id="_レイヤー_1-2"><path class="cls-2" d="M119.48,87.95c-3.07,7.94-10.31,11.88-17.15,11.88-13.67,0-22.07-9.04-22.07-23.81,0-11.12,8.11-23.06,21.44-23.06,3.36,0,7.53,1.1,10.14,2.96.52.35,1.04.58,1.39.75.06,0,1.56-1.16,2.38-2.14.35-.35.7-.46,1.1-.46.52,0,1.04.29,1.04.98l.58,14.08c-.06.69-.81,1.1-1.45,1.1-.52,0-1.1-.29-1.27-.93-2.38-8.58-5.27-13.62-13.27-13.62-6.14,0-12.63,6.26-12.63,20.16,0,10.72,4.52,19.64,13.91,19.64,4.63,0,9.85-1.85,13.38-8.63.29-.41.64-.52,1.04-.52.7,0,1.51.46,1.51,1.27,0,.12,0,.17-.06.23v.12Z"/><path class="cls-2" d="M161.4,94.03c-1.04,3.59-3.77,5.74-6.89,5.74-2.61,0-4.46-1.68-5.1-3.42-1.74,2.09-4,3.53-7.71,3.53s-9.15-1.91-9.15-8.17c0-5.79,4.34-8.81,16.4-10.43.06,0,.12-.17.12-.29.06-.58.06-1.56.06-2.32,0-5.1-.69-7.94-3.82-7.94-1.91,0-3.65,1.27-3.65,2.49,0,.23.06.41.17.7.41.64.7,1.68.7,2.38,0,3.07-2.67,3.88-4.11,3.88-2.96,0-3.94-1.91-3.94-3.88,0-3.88,4.87-8,11.76-8,9.73,0,10.2,7.65,10.2,10.54v.52c-.06,2.84-.29,7.13-.29,11.65,0,3.82.06,4.29,1.1,4.29.99,0,1.8-1.22,2.32-2.32.23-.12.41-.17.64-.17.52,0,1.22.35,1.22,1.04v.17ZM148.94,83.6h-.06c-4.29.87-8.69,1.97-8.69,7.47,0,4.4,1.74,5.39,3.59,5.39,1.68,0,5.04-1.51,5.04-4.06,0-.29-.06-.75-.06-1.33,0-2.26.17-6.31.17-7.42v-.06Z"/><path class="cls-2" d="M193.34,98.67c-.75,0-1.1-.35-1.1-.87,0-.41.29-.93.64-1.16,2.03-.06,2.72-.52,2.72-1.1,0-.29,0-.41-5.91-8.75-3.36,4.52-5.68,7.88-5.68,8.57,0,1.16,1.97,1.16,3.59,1.27.46.23.7.7.7,1.04,0,.52-.41.98-1.04.98h-11.3c-.64,0-.99-.46-.99-.93,0-.41.23-.87.64-1.1,3.88-.35,4.92-1.45,12.51-11.99-1.16-1.56-6.61-9.39-7.13-10.2l-.87-1.22c-1.22-1.68-2.72-1.8-3.53-1.85-.52-.23-.75-.64-.75-1.04s.29-.93.87-.93h13.5c.69,0,1.04.46,1.04.93,0,.35-.23.81-.64.99-.29,0-.64.06-.93.12-.29,0-.58.06-.81.17-.58.12-.81.35-.81.64,0,.7,4,6.14,4.92,7.42,1.8-2.2,4.52-6.2,4.52-7.01,0-1.16-1.91-1.22-3.36-1.33-.41-.12-.58-.64-.58-.99,0-.46.23-.93.98-.93h10.31c.64,0,.98.46.98.93,0,.35-.23.81-.64.99-1.97.12-3.01.64-4.4,2.03-.29.41-.64.81-.99,1.22l-5.33,7.13,8.29,11.53c1.91,2.55,2.61,3.24,4.92,3.42.52.23.75.7.75,1.1,0,.46-.29.93-.93.93h-14.2Z"/><path class="cls-2" d="M251.12,94.03c-1.04,3.59-3.77,5.74-6.89,5.74-2.61,0-4.46-1.68-5.1-3.42-1.74,2.09-4,3.53-7.71,3.53s-9.15-1.91-9.15-8.17c0-5.79,4.34-8.81,16.4-10.43.06,0,.12-.17.12-.29.06-.58.06-1.56.06-2.32,0-5.1-.7-7.94-3.82-7.94-1.91,0-3.65,1.27-3.65,2.49,0,.23.06.41.17.7.41.64.7,1.68.7,2.38,0,3.07-2.67,3.88-4.11,3.88-2.96,0-3.94-1.91-3.94-3.88,0-3.88,4.87-8,11.76-8,9.73,0,10.2,7.65,10.2,10.54v.52c-.06,2.84-.29,7.13-.29,11.65,0,3.82.06,4.29,1.1,4.29.99,0,1.8-1.22,2.32-2.32.23-.12.41-.17.64-.17.52,0,1.22.35,1.22,1.04v.17ZM238.67,83.6h-.06c-4.29.87-8.69,1.97-8.69,7.47,0,4.4,1.74,5.39,3.59,5.39,1.68,0,5.04-1.51,5.04-4.06,0-.29-.06-.75-.06-1.33,0-2.26.17-6.31.17-7.42v-.06Z"/><path class="cls-2" d="M283.42,98.67c-.7,0-.99-.46-.99-.98,0-.46.29-.98.81-1.22,3.59-.12,3.82-1.39,3.94-2.43.12-1.45.29-3.77.29-6.43v-7.47c0-3.01,0-4.69-.12-6.26-.17-2.09-.41-2.14-4.29-2.14-4.11,0-4.29.46-4.35,1.97-.06.58-1.16,18.89-5.33,23.99-.93,1.1-2.78,1.97-4.46,1.97-1.97,0-5.27-.75-5.27-4.35,0-2.78,2.2-3.94,3.65-3.94,1.62,0,3.01.93,3.36,2.67.06.46.17,1.45.35,1.45,1.91,0,4.69-12.28,4.69-20.39,0-3.3-1.16-3.53-3.59-3.71-.46-.17-.7-.64-.7-1.04,0-.46.35-.93.98-.93h25.55c.7,0,.99.58.99,1.04,0,.35-.23.81-.7,1.04-2.9.23-3.25.93-3.36,2.32-.12,1.56-.12,2.84-.12,5.85v7.94c0,2.49,0,4.52.17,6.6.12,1.04.35,2.26,3.48,2.32.52.17.81.7.81,1.16,0,.52-.29.98-.93.98h-14.89Z"/><path class="cls-2" d="M331.91,98.67c-.64,0-.99-.46-.99-.93,0-.52.29-.98.87-1.22,3.25-.12,3.36-.52,3.36-8.46v-9.27l-10.54,14.25c0,.35.06.69.06.98.12,1.16.29,2.43,3.24,2.49.52.17.81.7.81,1.16,0,.52-.41.98-1.04.98h-13.67c-.64,0-.93-.46-.93-.98,0-.46.29-.98.81-1.16,3.19-.06,3.53-.52,3.53-8.46v-8.05c0-2.49,0-4.11-.17-6.32-.06-.98-.17-2.09-3.19-2.2-.52-.17-.81-.69-.81-1.1,0-.52.29-.98.93-.98h13.38c.7,0,1.04.46,1.04.98,0,.41-.29.93-.81,1.1-3.13.12-3.25.52-3.25,8.05v9.56l10.54-14.25c0-.41,0-.75-.06-1.16-.06-1.1-.17-2.09-3.07-2.2-.52-.17-.87-.64-.87-1.16,0-.46.35-.93.99-.93h13.33c.75,0,1.04.52,1.04,1.04,0,.41-.17.98-.81,1.04-3.01.12-3.13,1.22-3.25,2.43-.12,1.62-.12,3.01-.12,5.62v8.29c0,2.55,0,4.69.12,6.2.12,1.22.41,2.43,3.48,2.49.52.17.75.7.75,1.1,0,.52-.29,1.04-1.04,1.04h-13.67Z"/><path class="cls-2" d="M378.69,98.67c-.64,0-.99-.46-.99-.93,0-.58.35-1.04.87-1.22,3.25-.17,3.36-.41,3.36-8.46v-3.3c0-.23-.12-.35-.46-.35h-9.73c-.35,0-.41.12-.41.29v3.88c0,7.07.12,7.88,3.36,7.94.52.17.81.7.81,1.16,0,.52-.41.98-1.04.98h-13.67c-.64,0-.98-.46-.98-.93,0-.58.35-1.04.87-1.22,2.96-.12,3.13-1.16,3.24-2.2.17-2.09.29-3.71.29-6.26v-8.05c0-2.49,0-4.11-.17-6.32-.06-.98-.17-2.09-3.19-2.2-.52-.17-.87-.64-.87-1.16,0-.46.35-.93.98-.93h13.38c.7,0,1.04.46,1.04.93s-.29.99-.81,1.16c-3.19.06-3.25.52-3.25,8.05v2.03c0,.12.12.29.41.29h9.73c.41,0,.46-.12.46-.29v-2.61c0-7.24,0-7.3-3.19-7.47-.52-.17-.87-.64-.87-1.16,0-.46.35-.93.99-.93h13.33c.75,0,1.04.52,1.04.98s-.23.93-.75,1.1c-3.07.06-3.19,1.22-3.3,2.43-.12,1.62-.12,3.01-.12,5.62v8.29c0,2.55,0,4.69.12,6.2.12,1.22.41,2.43,3.48,2.49.52.17.75.7.75,1.1,0,.52-.29,1.04-1.04,1.04h-13.67Z"/><path class="cls-1" d="M29.46,131.87c-4.75-3.1-10.96-9.74-12.96-15.89-1.83,6.45-7.12,13.21-13.15,17.23l-3.35-4.02c8.04-5.05,13.7-14.3,13.7-24.1v-8.89h5.54v8.64c0,9.98,5.96,18.38,13.45,23.01l-3.23,4.02ZM42.42,117.26v27.57h-5.36v-53.2h5.36v21.18h8.28v4.44h-8.28Z"/><path class="cls-1" d="M53.69,103.81v-4.2h31.29v4.2h-31.29ZM69.21,122.01c-7.12,0-12.66-2.98-12.66-8.16s5.42-8.22,12.66-8.22,12.54,3.04,12.54,8.22-5.29,8.16-12.54,8.16ZM61.05,144.65v-12.29h28.67v-3.65h-28.79v-4.14h34.15v11.75h-28.61v4.08h30.49v4.26h-35.91ZM61.72,96.75v-4.32h15.46v4.32h-15.46ZM69.21,109.71c-3.89,0-7.24,1.46-7.24,4.14s3.41,4.14,7.24,4.14,7.18-1.52,7.18-4.14-3.35-4.14-7.18-4.14ZM95.08,110.32v11.5h-5.36v-30.19h5.36v14.18h7.91v4.5h-7.91Z"/><path class="cls-1" d="M138.84,122.19c-5.17,1.03-13.88,1.58-21.3,1.58-2.68.06-5.42.06-8.22.06v-16.74h19.29v-7.3h-19.6v-4.38h24.96v15.89h-19.29v8.16c6.33,0,18.44-.37,23.49-1.58l.67,4.32ZM115.17,143.68v-15.22h5.36v10.77h31.16v4.44h-36.52ZM144.87,130.29v-38.65h5.42v38.65h-5.42Z"/><path class="cls-3" d="M36.08,12.26c.32,0,.8-.11,1.98-.64.7-.27,1.5-.59,2.35-.59.48,0,8.56,1.02,8.56,4.18,0,1.55-1.34,2.52-3.48,2.52-.43,0-.86-.05-1.29-.11-2.78-.48-4.17-.86-7.07-.91-.91,0-1.77-.05-2.68-.05.05,1.07.11,2.14.11,3.21,0,20.72-21.52,26.39-22.48,26.39-.16,0-.48-.05-.48-.37,0-.21.7-.86,2.3-1.77,6.26-3.37,12.63-10.87,14.24-19.7.38-2.03.59-4.28.59-6.9v-.64c-2.73.21-5.3.54-7.76.96.11,1.39.21,2.73.37,4.01.11.75.16,2.03.16,3.32,0,4.44-1.07,6.37-3.16,6.37-2.62,0-3.53-4.23-3.53-5.73v-.21c.05-1.02.59-2.25.7-2.46.05-.16.16-.37.16-.59.16-.96.27-2.19.27-3.53l-2.46.8c-1.07.37-1.87.8-2.68,1.12-.8.32-1.61.59-2.52.59-2.14,0-8.3-2.46-8.3-5.62,0-.8.54-2.03,1.02-2.03.21,0,.48.16.7.32,1.34,1.07,3.1,1.87,6.16,1.87,1.12,0,2.36-.11,3.75-.32l4.23-.64c-.32-8.3-1.55-8.72-3.43-8.72-.75,0-1.18-.21-1.18-.64,0-.59.86-2.14,3.48-2.14,2.78,0,7.07,1.55,7.07,3.64,0,.48-.16.96-.32,1.45-.59,1.44-.59,2.14-.59,5.57,2.68-.37,5.25-.8,7.71-1.12-.11-2.84-.05-5.25-.21-7.12-.16-2.14-.91-2.94-2.2-3.1-1.07-.11-1.61-.43-1.61-.8,0-.27.75-2.09,3.43-2.09,1.55,0,7.65,1.66,7.65,4.39,0,.32-.05.59-.16.91-.05.32-.21.64-.32.96-.64,1.55-.86,2.68-.86,6.16l1.77-.16Z"/><path class="cls-3" d="M48.77,45.83c-.27,0-.32-.05-.32-.16,0-.21.32-.75,1.93-1.98,8.73-6.91,13.33-22.05,13.33-23.18,0-.96-.59-1.61-1.71-1.66-.43,0-.8-.05-1.02-.05-.43-.11-.59-.27-.59-.48,0-.27,1.12-1.93,3.37-1.93,2.62,0,8.08,2.78,8.08,4.82,0,.59-.38,1.18-.75,1.71-.21.27-.86,1.18-1.18,1.87-8.56,18.57-20.98,21.04-21.14,21.04ZM86.35,38.55c-1.61-5.57-3.8-12.79-10.97-20.07-.96-.96-1.5-1.71-1.5-2.09,0-.21.21-.32.37-.32.43,0,1.29.38,2.46,1.07,11.51,6.58,17.45,15.09,17.45,19.7,0,3.59-2.03,5.83-4.07,5.83-1.93,0-3.21-2.19-3.75-4.12Z"/><path class="cls-3" d="M106.58,7.31c-.59,0-.91-.27-.91-.7s.8-2.25,3.69-2.25c1.61,0,7.12,1.23,7.12,3.69,0,.48-.16,1.02-.32,1.61-.27.8-.91,2.84-.91,7.55,0,2.25.11,4.44.21,6.21.05.86.16,2.03.16,3.27,0,1.87-.27,5.67-3.27,5.67s-3.96-5.94-3.96-6.53c0-.7,0-.91,1.07-3.37.32-1.02.48-1.71.48-5.57,0-7.76-.86-9.58-3.05-9.58h-.32ZM124.36,20.32c-.05-2.41-.05-6.64-.11-8.56,0-4.98-.32-6.8-2.57-6.91-1.23-.05-1.66-.43-1.66-.8,0-.8,1.61-2.25,3.8-2.25s8.08,2.3,8.08,4.66c0,.27-.05.59-.16.91-.05.32-.16.64-.27,1.02-.96,2.52-1.02,4.71-1.02,5.94,0,2.35.32,4.76.32,7.33,0,21.2-21.14,27.89-23.71,27.89-.38,0-.54-.21-.54-.32,0-.27.7-.86,2.25-1.66,9.15-4.5,15.58-15.84,15.58-26.82v-.43Z"/><path class="cls-3" d="M156.69,23.13c-2.78-4.12-6.16-6.69-8.08-7.71-.96-.54-1.39-.96-1.39-1.23,0-.43,2.25-.59,2.41-.59,4.98,0,14.02,1.82,14.02,7.6,0,2.36-1.61,4.12-3.53,4.12-1.23,0-2.41-.64-3.43-2.19ZM161.78,45.35c-.32.27-.64.59-.96.8-.59.54-1.29.91-2.3.91-2.46,0-9.74-3.85-9.74-7.49,0-1.02.64-2.57,1.39-2.57.48,0,.96.48,1.45,1.12.8,1.02,1.98,1.45,3.37,1.45,6.85,0,24.68-15.1,30.99-23.39,1.12-1.5,1.93-2.46,2.41-2.46.27,0,.32.27.32.43s-2.62,14.4-25.91,30.35c-.38.27-.7.59-1.02.86Z"/></g></svg>