<?xml version="1.0" encoding="UTF-8"?><svg id="_レイヤー_2" xmlns="http://www.w3.org/2000/svg" viewBox="0 0 124.2 537.67"><defs><style>.cls-1{fill:#d3d9e0;}.cls-2{opacity:.7;}</style></defs><g id="_レイヤー_1-2"><g class="cls-2"><path class="cls-1" d="M116.46,354c-3.92-5.36-5.78-12.1-7.54-18.4-1.34-4.79-4.13-10.65-4.49-15.56-4.09-4.06-1.89-11.48-3.88-16.3-3.47-8.41-6.51-16.99-9.64-25.53-5.13-14.01-7.76-28.08-9.82-42.81-1.17-8.34-2.33-16.7-4.23-24.9-1.14-4.92-2.11-1.33-4.61-4.77.1-.66,2.13-4.15,1.19-.9,3.21-6.46-2.42-14.37-4.72-20.21.04,2.79-.51,6.12.67,8.76-.99-.28-4.41.91-4.72-.67-.23-3.65.09-7.58,2.02-10.78,1.46,0,.92,1.82,2.7,1.35-.74-4.5-3.77-8.17-4.04-12.8-1.14-1.21-2.12.64-3.37-.67-.74-3.02-.93-6.12-.87-9.22.11-5.47.76-10.91.87-16.39,3.48-4.95,5.07-11.09,6.01-16.99,2.93-18.34,1-40.16-6.69-57.13-.65.87-1.33.87-2.02,0,0-.01,3.81-4.03,1.72-3.97-.74.02-1.06,1.58-1.9,1.4-2.35-.51,1.45-2.88,1.52-3.04.94-1.85-4.61-9.73-5.39-11.91-1.54-4.31-6.35-12.73-4.72-16.17-1.88-6.54,8.6-9.73,3.8-17.93-1.88-3.21-4.6-5.82-6.5-9.02-1.87-3.18-1.9-7.37-5.39-9.43-.24,3.54-2.01,7.24-5.39,8.76.8,3.29,3.5-1.67,4.04,1.35-1.64.1-2.99.78-4.04,2.02-.52-4.69-8.34-1.43-10.78-4.04,4.26,8.03,9.67,15.09,14.88,22.47,5.18,7.34-4.58,12.49-1.4,19.3,3.76-1.31,2.37-6.93,4.72-9.43,3.54,3.55,2.55,12.42-2.02,14.82.71-4.43-2.34-3.8-4.64-3.96-5.41-.39-2.2,4.28-2.77,8,2.83.14,4.74-1.82,6.06,2.02-3.66.13-4.83,3.27-5.92,6.2-1.85,4.99-4.33,2.73-8.23,5.25-2.28-3.49-2.32-8.89-1.35-12.8-4.99,2.39-10.44,4.01-15.01,7.21-6.13,4.31-5.74,8.53-3.05,15.08,2.02,4.93,4.41,9.35,3.59,14.78-1.08,7.09-4.13,14.31-3.72,21.55.28,5.14.01,8.8-3.1,13.32-3.48,5.06-5.33,8.87-3.52,15.11,1.67,5.75-1.4,8.77.16,14.31.85,3.05,1.97,7.01-.95,9.14,2.7,1.49,6.19,2.52,7.54,5.6,2.92,6.7-2.7,3.02-5.52,3.16.25,2.05,1.89,2.61,3.69,2.45.1.58.21.69-.32.92,3.55.58,2.88,7.84,7.41,5.39-2.1,3.92,5.38,8.1,5.74,12.87.27,3.57,4.52,5.79,3.26,9.3-1.17,3.25,2.28,7.6,2.95,10.78,1.39,6.61-5.14,13.79-6.42,20.26-.97,4.88-1.8,9.85-1.48,14.85.24,3.67,2.63,6.78,3.62,10.25,1.01,3.54-.23,7.97-.05,11.71.22,4.67.52,9.33.78,13.99.51,9.26,1,18.55-.25,27.77-.57,4.15-2.95,7.7-3.42,11.74-.51,4.37,1.22,7.3-.68,11.55-2.59,5.81.51,14.94-5.27,18.96-6.34,4.41-.69,14.44,2.41,19.06,4.9,7.32,7.48,13.39,7.84,22.34.16,3.88,2,10.1.08,13.35-1.97,3.33-3.94,6.66-5.55,10.19-3.94,8.62-4.25,16.71-1.79,25.8,2.13,7.88,3.58,15.4.97,23.4-2.15,6.57-6.5,12.46-7.86,19.28-1.52,7.62,2.42,15.7,3.53,23.15,1.21,8.22,2.17,12.77,7.66,19.09.66-1.96.85-4.01.67-6.06,3.07-.5,4.65-2.93,5.16-5.69,1-5.39,1.84-10.81,3.16-16.14,2.31-9.36,6.6-19.01,16.61-21.97.07,1.11-.75,4.61,1.35,4.72.19.83-.25,2.77.67,4.04,4.36-3.39,11.34,2.77,14.82-2.02-.3,3.48,3.21,3.56,5.45,2.56.03.32.07.63.1.95-.89-.04-1.39.36-1.51,1.21,1.19.58,3.54-1.49,4.04,0,.9,2.79-2.58,1.75-1.27,5.6,2.68,7.95,4.49,15.6,3.29,24.04,5.2-.62,2.13-7.93,4-10.69,1.3-1.92,6.49-7.92,4.88-10.01-5.57-7.21-.45-20.67-7.52-26.47-.79,6.35-7.52-1.09-10.11.67,5.56,3.65-.09-.08,1.15,1.62-8.99-5.09-4.02-21.77-8.15-30.11-2.44-4.92-7.84-5.6-11.36-9.4-3.26-3.53-5.39-7.91-6.47-12.57-2.34-10.07-.38-20.79,2.1-30.64,2.36-9.4,4.72-19.67,8.77-28.51,2.22-4.84,5.75-9.49,6.99-14.73,1.18-5-3.13-8.49-.6-14.02,4.51-9.83,17.25-10.82,26.76-10.57,8.14.21,20.51,2.48,23.42,11.37,1.52,4.64,8.25,7.61,11.16,12.16,2.92,4.58,3.43,11.52,6.91,15.46,2.2-6.24.28-16.17-6.87-18.49Z"/></g></g></svg>