<?xml version="1.0" encoding="UTF-8"?><svg id="_レイヤー_2" xmlns="http://www.w3.org/2000/svg" viewBox="0 0 288.78 293.28"><defs><style>.cls-1{fill:#32363a;}</style></defs><g id="_万華鏡"><path class="cls-1" d="M51.75,52.18c-.36.36-.79.59-1.28.7-.49.11-.97.11-1.46,0-.49-.12-.91-.36-1.27-.72-.37-.38-.61-.81-.72-1.29-.11-.49-.11-.97.02-1.45.12-.48.37-.9.73-1.26.38-.37.8-.61,1.29-.73.48-.12.96-.11,1.44,0,.48.12.91.37,1.28.75.36.36.6.79.71,1.27.12.48.12.96,0,1.45-.12.49-.36.91-.74,1.28Z"/><path class="cls-1" d="M72.33,44.46c-.85.6-1.78,1.08-2.78,1.46-1,.38-1.93.57-2.79.59l-2.28-3.51,1.1-.78,3.82,3.21-1.65.35-.79-.63c1.02,0,1.86-.09,2.5-.31.64-.21,1.31-.56,2-1.05,1.06-.74,1.71-1.57,1.97-2.46.26-.9.08-1.79-.54-2.66-.34-.49-.71-.85-1.11-1.09-.4-.24-.88-.37-1.44-.39-.56-.02-1.25.06-2.06.24l-1.25.26c-1.75.34-3.25.38-4.48.13-1.23-.26-2.27-.98-3.11-2.18-.65-.92-.96-1.86-.94-2.82s.32-1.89.9-2.79c.58-.9,1.4-1.71,2.44-2.45.82-.58,1.64-1,2.46-1.28.82-.28,1.64-.42,2.44-.43l2.14,3.36-1.1.78-3.66-3.03,1.79-.38.75.72c-.92-.06-1.65-.03-2.2.08-.55.12-1.12.38-1.7.79-.93.66-1.53,1.41-1.8,2.27-.27.86-.12,1.69.46,2.51.53.75,1.16,1.2,1.89,1.35.73.15,1.6.12,2.59-.08l1.36-.28c1.37-.28,2.52-.4,3.46-.38s1.74.22,2.41.58c.66.37,1.26.93,1.8,1.69.63.9.96,1.85.98,2.85.02,1-.27,1.99-.87,2.98-.59.99-1.5,1.91-2.72,2.77Z"/><path class="cls-1" d="M89.64,33.95c-.76.41-1.47.5-2.11.27-.64-.23-1.21-.69-1.7-1.39l-.04-.07-3.41-6.39c-.43-.81-.84-1.4-1.23-1.76-.39-.36-.8-.54-1.24-.54-.44,0-.96.16-1.54.47-.39.21-.76.46-1.12.77-.36.31-.75.72-1.17,1.23l1.09-1.31.7,1.85c.3.67.38,1.21.25,1.63-.13.42-.4.73-.78.94-.73.39-1.38.29-1.92-.3-.39-1.1-.29-2.18.3-3.25.59-1.07,1.68-2.02,3.25-2.87,1.5-.8,2.77-1.04,3.82-.71,1.05.33,1.99,1.27,2.83,2.83l3.14,5.87c.28.52.54.85.78.97s.48.12.72,0c.17-.09.29-.22.39-.41s.17-.48.23-.87l.55.11c.02.68-.12,1.26-.41,1.72-.29.46-.75.86-1.38,1.2ZM83.38,37.33c-.94.5-1.86.65-2.75.45-.89-.21-1.59-.78-2.09-1.73-.35-.64-.5-1.29-.48-1.93.02-.64.27-1.33.73-2.07.46-.74,1.17-1.57,2.13-2.48.51-.49,1.09-1.02,1.73-1.61.64-.59,1.22-1.11,1.75-1.57l.3.56c-.52.47-1.03.95-1.54,1.44-.51.49-.93.92-1.26,1.27-.63.76-1.01,1.51-1.14,2.24-.13.73,0,1.47.41,2.22.37.69.81,1.12,1.32,1.28s1.04.09,1.6-.2c.24-.13.47-.32.69-.58.22-.26.43-.63.64-1.12.21-.49.42-1.13.63-1.94l1,1-.79.42c-.19.7-.38,1.31-.59,1.85-.21.53-.48,1.01-.83,1.41-.35.41-.83.77-1.42,1.09Z"/><path class="cls-1" d="M95.01,31.02c-.09-.29-.22-.67-.39-1.13s-.35-.97-.55-1.51c-.2-.54-.39-1.07-.59-1.59-.2-.52-.37-.98-.53-1.39l-4.64-12.23-1.9.58-.24-.64,4.46-2.75.44.08,1.34,3.83,3.7,9.77c.17.44.35.93.56,1.46.2.53.41,1.08.63,1.63.22.55.42,1.06.61,1.51.19.46.35.82.47,1.1l-3.39,1.28ZM93.3,31.67l-.27-.71,2.44-1.2,1.53-.58,2.74-.76.27.71-6.7,2.54ZM95.07,26.2l-.4-1.05.14-.05,2.39-5.21,2.43-5.23,1.38-.52-5.95,12.07ZM96.55,16.64l-.27-.72,6.08-2.3.27.71-2.69,1.32-.47.26-2.92.72ZM103.21,27.91l-6.4-5.75,1.45-2.92,7.63,6.68,1.7-.48.27.72-4.65,1.76Z"/><path class="cls-1" d="M110.95,25.38c-.08-.42-.19-.98-.34-1.67-.15-.7-.31-1.42-.47-2.18-.16-.75-.31-1.42-.44-2l-2.91-12.75-1.97.32-.15-.67,4.75-2.1.37.15.83,3.97,1.18,5.17.15.33,1.1,4.82c.13.58.29,1.25.47,2,.18.75.36,1.47.53,2.17.17.69.32,1.24.43,1.65l-3.53.8ZM109.19,25.78l-.17-.75,2.58-.85,1.59-.36,2.64-.34.17.75-6.81,1.55ZM119.47,23.43c-.06-.42-.17-.98-.31-1.67-.15-.69-.31-1.41-.47-2.17-.16-.76-.31-1.43-.45-2.03l-.77-3.36c-.24-1.04-.58-1.74-1.04-2.08-.45-.34-.99-.44-1.6-.3-.55.12-1.12.46-1.72,1.01-.6.55-1.18,1.35-1.74,2.4l-.96-.9,1.02-.23c.61-1.29,1.27-2.27,1.97-2.95s1.54-1.12,2.52-1.35c1.19-.27,2.22-.11,3.09.48.87.59,1.49,1.74,1.88,3.43l.7,3.08c.14.6.29,1.27.48,2.02.18.75.35,1.47.52,2.16.16.69.3,1.23.41,1.64l-3.53.81ZM117.79,23.82l-.17-.75,2.53-.84,1.54-.35,2.77-.37.17.75-6.83,1.56Z"/><path class="cls-1" d="M137.48,21.4c-.86.08-1.55-.11-2.05-.56s-.85-1.1-1.03-1.94v-.08s-.69-7.21-.69-7.21c-.09-.91-.24-1.61-.45-2.1-.22-.48-.53-.81-.94-.97-.41-.17-.94-.22-1.6-.16-.44.04-.88.13-1.33.28-.45.14-.96.37-1.55.68l1.51-.78-.07,1.98c.02.73-.12,1.27-.4,1.6-.28.33-.65.52-1.09.56-.83.08-1.38-.26-1.66-1.02.06-1.17.57-2.13,1.53-2.88.96-.76,2.33-1.22,4.11-1.39,1.69-.16,2.96.11,3.8.82.84.71,1.35,1.94,1.51,3.7l.62,6.62c.06.59.17.99.34,1.2.17.21.39.29.67.27.19-.02.36-.09.51-.23.16-.13.34-.37.55-.72l.46.31c-.25.64-.59,1.12-1.04,1.43-.45.32-1.03.51-1.74.57ZM130.4,22.09c-1.07.1-1.97-.12-2.71-.65-.74-.54-1.16-1.34-1.26-2.4-.07-.73.03-1.38.3-1.96.27-.58.76-1.12,1.47-1.62.71-.5,1.69-.99,2.92-1.47.66-.25,1.4-.52,2.21-.82.82-.3,1.56-.56,2.22-.77l.06.63c-.66.23-1.32.48-1.98.74-.66.26-1.21.49-1.65.68-.88.46-1.52,1-1.92,1.63-.4.63-.56,1.36-.48,2.21.07.78.31,1.34.72,1.69s.92.49,1.55.43c.27-.03.56-.12.86-.27.3-.16.64-.42,1.03-.79.38-.37.83-.88,1.33-1.55l.53,1.31-.89.08c-.44.57-.86,1.06-1.26,1.48s-.83.74-1.32.98c-.48.24-1.06.39-1.74.46Z"/><path class="cls-1" d="M141.58,20.87v-.76s2.83-.25,2.83-.25h1.61s2.98.27,2.98.27v.76s-7.42-.02-7.42-.02ZM143.49,20.87c.02-.59.03-1.23.04-1.91,0-.68.02-1.37.03-2.08,0-.71.02-1.37.02-2l.03-13.08-1.99-.13v-.69s5.15-.98,5.15-.98l.38.23-.11,4.05-.02,10.61c0,.63,0,1.3,0,2,0,.71.02,1.4.03,2.08.01.68.03,1.32.04,1.91h-3.62Z"/><path class="cls-1" d="M150.97,20.97l.06-.76,2.74-.05,1.58.12,2.73.46-.06.76-7.04-.53ZM152.77,21.11c.05-.42.1-.99.17-1.7.06-.71.12-1.45.19-2.22s.12-1.45.17-2.04l.14-1.86c.06-.85.11-1.58.15-2.19.04-.61.06-1.22.07-1.83l-1.99-.33.05-.61,5.36-.95.32.23-.4,3.91-.29,3.89c-.04.59-.09,1.28-.14,2.05-.05.77-.09,1.51-.13,2.23s-.06,1.28-.08,1.71l-3.58-.27ZM155.68,4.58c-.52-.04-.96-.25-1.32-.62-.35-.38-.51-.84-.47-1.4.04-.53.26-.95.67-1.27.41-.32.87-.46,1.4-.42.53.04.97.25,1.32.62.35.38.51.83.47,1.35-.04.56-.27,1-.67,1.32-.41.32-.88.46-1.4.42Z"/><path class="cls-1" d="M160.03,21.54l.14-.75,2.71.24,1.58.29,2.61.74-.14.75-6.9-1.27ZM161.79,21.86c.11-.41.23-.97.37-1.67.14-.7.28-1.43.43-2.19.15-.76.28-1.43.38-2.02l.35-1.88c.15-.84.27-1.54.36-2.1.09-.56.17-1.16.25-1.78l-1.92-.53.11-.6,5.17-.48.29.26-.32,2.89v.05s-.89,4.79-.89,4.79c-.11.58-.23,1.26-.36,2.02s-.26,1.5-.38,2.2c-.12.7-.21,1.27-.27,1.69l-3.56-.65ZM170.42,23.44c.09-.41.21-.97.34-1.66s.28-1.42.43-2.18c.15-.76.28-1.44.39-2.04l.62-3.38c.19-1.05.17-1.82-.08-2.31-.25-.49-.69-.79-1.32-.9-.5-.09-1.16,0-1.96.25-.81.26-1.68.77-2.61,1.53l.1-1.1.38.07c1.15-1.02,2.2-1.68,3.12-1.98s1.84-.37,2.75-.21c1.17.21,2.03.77,2.58,1.67.55.9.68,2.17.37,3.83l-.58,3.16c-.11.6-.23,1.28-.36,2.05-.13.76-.25,1.49-.36,2.19-.11.7-.2,1.26-.26,1.68l-3.54-.65ZM168.68,23.12l.14-.75,2.65.23,1.58.29,2.66.75-.14.75-6.89-1.27Z"/><path class="cls-1" d="M184.01,26.87l.33-.78,3.74,1.07.36.14-.43,1.12-3.99-1.55ZM186.24,27.74c.56-1.33,1.09-2.67,1.61-4s1-2.57,1.45-3.73l.63-1.62c.54-1.38,1.07-2.75,1.61-4.13s1.05-2.75,1.55-4.13l3.49,1.36c-.54,1.34-1.08,2.69-1.62,4.06s-1.07,2.71-1.58,4.02l-.58,1.5c-.49,1.25-.99,2.56-1.51,3.91-.52,1.36-1.04,2.73-1.56,4.11l-3.49-1.36ZM188,28.42l.34-.88,8.62,3.36-1.98.1,3.15-4.49,1.21.47-2,5.08-9.34-3.63ZM190.56,10.05l.3-.78,8.1,3.15-.31.78-3.81-1.1-.79-.3-3.5-1.75Z"/><path class="cls-1" d="M199.23,33.13l.35-.68,2.54,1.02,1.41.72,2.33,1.48-.35.68-6.28-3.22ZM200.84,33.95c.21-.37.48-.87.81-1.5.33-.63.68-1.29,1.04-1.97.36-.68.68-1.29.95-1.82l.85-1.66c.39-.76.72-1.41.99-1.96.27-.55.53-1.1.78-1.66l-1.71-1.08.28-.54,5.31,1.21.2.33-1.88,3.45-1.78,3.47c-.27.53-.58,1.14-.93,1.83-.34.69-.67,1.36-.98,2-.31.64-.56,1.16-.74,1.54l-3.2-1.64ZM209.95,19.86c-.47-.24-.79-.6-.97-1.09-.18-.48-.14-.98.11-1.47.24-.47.61-.77,1.11-.91.5-.13.98-.08,1.45.16.47.24.79.6.98,1.09.18.48.15.96-.09,1.43-.26.5-.63.82-1.13.95-.5.14-.98.08-1.45-.16Z"/><path class="cls-1" d="M207.19,37.27l.4-.65,2.58,1.29,1.82,1.12,2.34,1.74-.4.65-6.75-4.16ZM208.82,38.27c.55-.82,1.09-1.66,1.62-2.52.54-.86,1.07-1.7,1.58-2.54l3.49-5.66-1.82-1.12.43-.69,3.02,1.47-1.35-.09.17-.23c.95-1.31,1.85-2.25,2.7-2.83.85-.57,1.69-.93,2.52-1.08.86-.17,1.66-.17,2.39-.02.74.15,1.42.43,2.06.82.61.37,1.09.83,1.44,1.35.35.53.43,1.09.24,1.69-.24.35-.55.58-.94.68s-.81,0-1.26-.27c-.38-.23-.65-.55-.83-.94-.17-.4-.25-.94-.21-1.64l-.02-1.18.12-.2,1.02.63-.11.17c-.4-.17-.8-.24-1.21-.24-.41,0-.79.08-1.12.24-.47.25-.93.58-1.36,1-.44.42-.88.96-1.32,1.61-.44.66-.92,1.44-1.42,2.35l-3.69,5.99c-.52.84-1.04,1.69-1.55,2.56-.52.87-1.02,1.73-1.51,2.59l-3.08-1.9ZM217.02,28.47l.54-.87,4.4,2.72-.53.87-4.41-2.72Z"/><path class="cls-1" d="M221.59,47.46c-1.08-.83-1.87-1.78-2.38-2.86-.51-1.08-.67-2.24-.49-3.47.18-1.23.75-2.47,1.7-3.71.93-1.21,1.98-2.06,3.15-2.52,1.17-.46,2.34-.6,3.51-.41s2.23.64,3.17,1.37c1,.76,1.69,1.61,2.06,2.52.38.92.48,1.85.31,2.79-.17.94-.58,1.83-1.22,2.66-.36.47-.72.85-1.07,1.14l-8.73-6.67.54-.71,5.17,3.95c.43.33.82.44,1.15.32.34-.12.71-.45,1.12-.99.68-.89,1.02-1.72,1.01-2.5,0-.78-.33-1.41-.98-1.91-.45-.34-.99-.49-1.62-.44-.64.05-1.33.34-2.09.87-.76.53-1.56,1.34-2.39,2.44-.84,1.11-1.38,2.13-1.62,3.08-.23.95-.2,1.79.1,2.53s.8,1.38,1.5,1.92c.72.55,1.42.87,2.12.98.7.11,1.41.06,2.14-.13l.16.54c-1.04.49-2.1.67-3.18.55-1.08-.12-2.13-.57-3.14-1.34Z"/><path class="cls-1" d="M236.55,61.19c-.71-.76-1.31-1.61-1.82-2.56-.51-.95-.83-1.84-.96-2.69l3.17-2.73.92.99-2.67,4.21-.57-1.59.52-.86c.13,1.01.34,1.83.64,2.43s.73,1.22,1.31,1.84c.88.95,1.78,1.49,2.71,1.63.93.14,1.78-.16,2.57-.89.44-.4.75-.82.93-1.25.18-.43.25-.92.19-1.48-.06-.56-.23-1.23-.51-2.01l-.42-1.21c-.57-1.69-.82-3.17-.73-4.42.09-1.25.67-2.38,1.74-3.37.82-.76,1.71-1.2,2.67-1.31.95-.11,1.92.07,2.88.52.97.46,1.89,1.15,2.75,2.09.68.74,1.21,1.49,1.6,2.27.39.78.64,1.57.75,2.37l-3.04,2.57-.92-.99,2.52-4.04.62,1.72-.61.84c-.06-.92-.19-1.64-.38-2.17s-.53-1.06-1.01-1.58c-.77-.83-1.6-1.33-2.49-1.48-.88-.15-1.69.11-2.43.79-.67.62-1.04,1.31-1.09,2.05-.05.74.09,1.6.43,2.56l.46,1.32c.46,1.32.74,2.44.84,3.38.1.94.02,1.76-.26,2.46-.27.71-.75,1.38-1.44,2.01-.81.75-1.71,1.2-2.69,1.35-.99.15-2.01,0-3.07-.46-1.06-.46-2.1-1.23-3.11-2.33Z"/><path class="cls-1" d="M245.96,72.38c-.73-.96-1.04-1.88-.93-2.74.1-.86.68-1.69,1.72-2.48.38-.29.73-.54,1.04-.76.31-.22.67-.49,1.08-.79l5.32-4-1.33-1.77.65-.49,1.89,2.09-.56-.19,4.19-1.68,1.33,1.77-3.64,2.67-.2.15-7.84,5.9c-.57.43-.9.86-.99,1.3-.09.44.03.87.35,1.29.2.27.44.48.7.62.27.14.6.27,1.01.39l-.12.57c-.69.07-1.34-.04-1.96-.33-.61-.29-1.19-.79-1.72-1.5ZM255.23,62.98l.81-.61,3.02,4.01-.81.61-3.02-4.01Z"/><path class="cls-1" d="M252.54,82.27c-.69-1.15-1.05-2.33-1.08-3.52s.26-2.33.9-3.39c.63-1.06,1.6-1.98,2.89-2.76s2.57-1.17,3.81-1.18c1.24-.01,2.38.29,3.41.9,1.03.61,1.86,1.45,2.5,2.51.65,1.08,1,2.21,1.06,3.41s-.21,2.33-.8,3.42c-.6,1.09-1.55,2.03-2.86,2.81-1.3.78-2.57,1.19-3.81,1.25-1.25.05-2.39-.22-3.42-.82-1.03-.6-1.89-1.48-2.58-2.63ZM253.27,81.84c.53.89,1.4,1.3,2.62,1.24,1.21-.06,2.73-.64,4.55-1.73,1.84-1.1,3.06-2.17,3.67-3.2.61-1.03.65-1.99.12-2.88-.53-.88-1.39-1.29-2.59-1.24s-2.72.62-4.56,1.72c-1.82,1.09-3.04,2.16-3.67,3.21-.62,1.05-.67,2.01-.15,2.88Z"/><path class="cls-1" d="M257.4,90l.7-.31,1.39,2.4.91,2.02.89,2.67-.7.31-3.19-7.09ZM258.14,91.65c.4-.14.93-.36,1.58-.64.65-.29,1.33-.58,2.04-.89.71-.31,1.33-.59,1.88-.83l1.74-.78c.79-.36,1.44-.66,1.94-.9.5-.25,1.04-.51,1.6-.8l-.65-1.89.56-.25,3.33,3.98-.05.39-3.24,1.68h-.02s-3.79,1.72-3.79,1.72c-.54.24-1.16.53-1.87.85-.7.33-1.38.64-2.02.94-.65.3-1.16.55-1.54.74l-1.49-3.3ZM267.02,91.5l1.07-1.41.28.63c.96-.15,1.82-.15,2.6,0s1.43.41,1.98.79c.54.38.93.83,1.16,1.34.23.51.32,1.02.26,1.52-.06.5-.34.93-.87,1.3-.5.21-.97.26-1.4.15-.43-.1-.76-.42-1-.95-.17-.39-.22-.77-.12-1.15.09-.38.26-.8.5-1.26l.39-.82.24.9c-.63-.5-1.35-.83-2.14-1.01s-1.77-.18-2.94-.03Z"/><path class="cls-1" d="M256.62,105.57c-.2-.63-.24-1.25-.1-1.86.14-.61.46-1.01.99-1.21.5-.07.91.04,1.26.33.34.29.58.65.72,1.07.14.44.15.86.03,1.26-.12.4-.31.82-.57,1.24l-.64,1.01-.81-.68.26-.62c.57.67,1.32,1.16,2.24,1.46.92.3,2.07.51,3.46.61l2.01.16.65.03,6.5.24,6.6.05.32.99-15.73-.7c-1.53-.08-2.78-.26-3.77-.54-.99-.28-1.75-.65-2.29-1.13-.53-.47-.91-1.05-1.13-1.72ZM262.91,108.56l12.79-10.86,1.15,3.57-9.42,7.28-.22.23-4.3-.22ZM274.67,96.93l.71-.23,2.22,6.92-.7.23-1.03-2.29-.67-2.09-.52-2.54ZM277.65,106.21l.7-.23,1.6,4.98-.71.23-.91-1.91-.13-.41-.56-2.66Z"/><path class="cls-1" d="M268.67,122.16l.84-.1.64,2.49.06.46v2.8s-.82.1-.82.1l-.71-5.74ZM268.88,123.93l19.62,3.95.27,2.23-18.06,8.73-.45-3.64,15.94-7.39.06.51-.36-.03-16.87-3.11-.15-1.24ZM269.91,132.26l.83-.1.78,3.37.16,1.26.08,3.56-.83.1-1.01-8.2ZM275.33,125.96l.88.1.99,8.02-.84.28-1.04-8.4Z"/><path class="cls-1" d="M270.77,141.93h.76s.27,2.76.27,2.76v2.22s-.3,2.8-.3,2.8h-.77s.04-7.78.04-7.78ZM270.76,143.74c.42.04.99.06,1.71.07s1.46.02,2.23.04c.77.01,1.46.02,2.05.02h1.91c.87.01,1.58,0,2.14,0,.56-.01,1.16-.04,1.78-.07l.19-1.99h.61s1.38,5.01,1.38,5.01l-.21.33-3.65.19h-.03l-4.16-.02c-.6,0-1.28,0-2.05,0-.77,0-1.52,0-2.23.01-.71,0-1.28.02-1.71.03l.02-3.62ZM278.9,147.3l1.56-.83v.69c.93.26,1.72.62,2.36,1.07s1.13.97,1.47,1.54c.34.57.5,1.14.5,1.7,0,.56-.13,1.06-.39,1.49-.26.43-.7.71-1.33.82-.54-.02-.99-.17-1.34-.44-.35-.27-.52-.7-.52-1.28,0-.42.12-.79.36-1.09.24-.3.56-.62.97-.94l.69-.58-.16.92c-.37-.72-.88-1.32-1.53-1.8-.65-.49-1.54-.9-2.66-1.25Z"/><path class="cls-1" d="M269.44,161.82c.15-1.27.55-2.38,1.21-3.35s1.54-1.69,2.65-2.17c1.11-.48,2.41-.63,3.91-.46,1.6.18,2.92.67,3.94,1.47,1.02.79,1.75,1.78,2.19,2.96.44,1.18.58,2.43.43,3.74-.1.86-.35,1.63-.77,2.31-.41.68-.93,1.22-1.55,1.62-.62.4-1.31.62-2.07.67-.75-.33-1.08-.87-.99-1.63.05-.46.25-.84.59-1.14.34-.3.9-.43,1.66-.37l2.41-.18-1.31,1.59c.34-.46.6-.89.78-1.3.17-.41.29-.83.34-1.27.09-.79-.07-1.53-.48-2.21-.41-.68-1.04-1.25-1.91-1.71-.86-.46-1.94-.76-3.22-.91-1.86-.21-3.34.04-4.45.77-1.11.73-1.75,1.79-1.91,3.19-.09.74,0,1.44.25,2.09.25.65.64,1.25,1.18,1.79l-.38.42c-.99-.73-1.7-1.56-2.11-2.5-.41-.94-.54-2.08-.39-3.43Z"/><path class="cls-1" d="M266.78,178.19l.74.18-.39,2.63-.38,1.53-.92,2.64-.74-.18,1.69-6.8ZM266.36,179.87c.4.13.95.29,1.63.47.68.18,1.4.37,2.15.56.75.19,1.42.37,2.01.51l3.34.83c1.04.26,1.81.26,2.32.01.51-.25.84-.68.99-1.29.13-.54.09-1.21-.12-1.99-.22-.78-.67-1.66-1.35-2.63l1.24-.45-.25,1.01c.87,1.13,1.46,2.16,1.74,3.09.29.93.31,1.88.07,2.85-.29,1.19-.9,2.04-1.83,2.54-.92.51-2.23.55-3.91.13l-3.07-.76c-.59-.15-1.27-.31-2.02-.49-.75-.18-1.47-.35-2.16-.51-.69-.16-1.24-.29-1.65-.37l.87-3.51ZM268.9,169.62l.74.18-.41,2.68-.39,1.58-.89,2.51-.74-.18,1.68-6.78ZM268.47,171.38c.41.12.96.27,1.65.45.69.18,1.41.37,2.16.56.75.19,1.41.36,1.99.51l12.69,3.15.6-1.9.67.17-.27,5.19-.3.27-3.92-1.05-5.15-1.28h-.36s-4.8-1.2-4.8-1.2c-.58-.14-1.24-.31-1.99-.48-.75-.18-1.48-.35-2.17-.5-.7-.16-1.25-.28-1.67-.36l.87-3.51Z"/><path class="cls-1" d="M264.27,186.83l.72.26-.7,2.65-.54,1.48-1.19,2.5-.72-.26,2.43-6.63ZM263.64,188.53c.39.16.92.37,1.59.62.67.25,1.36.52,2.09.79s1.36.51,1.92.72l1.75.64c.8.29,1.49.54,2.06.74.58.2,1.16.39,1.75.57l.86-1.83.58.21-.55,5.42-.31.24-3.65-1.45-3.66-1.34c-.56-.21-1.2-.44-1.93-.69-.73-.26-1.43-.5-2.11-.73-.68-.23-1.22-.41-1.62-.54l1.24-3.38ZM278.75,195.83c.18-.5.5-.86.96-1.1.46-.24.95-.26,1.48-.07.5.18.84.51,1.04.99.2.48.2.97.02,1.46-.18.49-.5.86-.96,1.1-.46.24-.94.27-1.43.09-.53-.19-.89-.53-1.08-1.01-.2-.48-.2-.97-.02-1.46Z"/><path class="cls-1" d="M258.72,200.31l14.8.92-1.62,3.38-11.8-1.05.23-.48.27.27,8.1,7.93-.5,1.03-10.13-10.64.65-1.36ZM269.05,208.78l.69.33-2.15,4.48-.69-.33.64-1.98.22-.46,1.29-2.04ZM273.31,199.9l.69.33-3.17,6.6-.69-.33.92-2.56.93-1.93,1.32-2.11Z"/><path class="cls-1" d="M250.39,214.63c.73-1.15,1.61-2.02,2.65-2.62s2.17-.86,3.42-.79c1.24.08,2.52.53,3.84,1.37,1.29.82,2.22,1.79,2.78,2.92.56,1.12.8,2.28.71,3.46-.09,1.18-.45,2.28-1.09,3.28-.67,1.06-1.46,1.82-2.34,2.27-.88.45-1.8.64-2.75.55-.95-.09-1.87-.42-2.76-.99-.5-.32-.91-.64-1.23-.96l5.9-9.27.75.48-3.49,5.48c-.29.46-.37.85-.22,1.18.15.32.51.67,1.08,1.03.95.6,1.8.87,2.58.79.77-.07,1.38-.45,1.82-1.14.3-.47.4-1.03.3-1.65-.1-.63-.45-1.3-1.05-2.01s-1.47-1.44-2.63-2.18c-1.18-.75-2.25-1.2-3.21-1.35-.96-.15-1.8-.04-2.51.32s-1.31.92-1.78,1.66c-.48.76-.75,1.49-.8,2.2-.05.71.06,1.41.31,2.12l-.53.21c-.58-.99-.85-2.03-.82-3.12.03-1.09.39-2.17,1.07-3.25Z"/><path class="cls-1" d="M243.88,235.12c.34-.38.75-.64,1.23-.77.48-.14.97-.16,1.46-.07.49.09.93.31,1.3.65.39.35.66.77.79,1.25s.16.96.06,1.45c-.1.49-.32.92-.66,1.3-.35.39-.77.66-1.24.8-.47.14-.95.17-1.44.07-.49-.1-.92-.32-1.31-.67-.38-.34-.64-.75-.78-1.23s-.17-.96-.08-1.45c.09-.49.31-.93.67-1.32Z"/><path class="cls-1" d="M223.89,244.1c.81-.65,1.7-1.2,2.68-1.63.98-.44,1.89-.7,2.75-.78l2.5,3.35-1.05.85-4.02-2.95,1.63-.46.83.58c-1.02.06-1.84.21-2.47.47-.63.25-1.27.65-1.93,1.18-1,.81-1.61,1.67-1.81,2.59-.2.91.04,1.79.71,2.62.37.46.77.8,1.18,1.01.41.21.9.31,1.46.29.56-.02,1.25-.14,2.04-.37l1.23-.34c1.73-.46,3.22-.59,4.46-.42,1.24.18,2.32.83,3.24,1.97.7.87,1.08,1.79,1.12,2.75.04.96-.2,1.91-.72,2.84-.52.93-1.28,1.8-2.27,2.6-.78.63-1.57,1.11-2.38,1.44-.8.33-1.61.53-2.41.58l-2.36-3.21,1.05-.85,3.85,2.79-1.76.5-.8-.67c.92,0,1.65-.07,2.19-.23.54-.15,1.09-.45,1.65-.9.89-.71,1.44-1.51,1.65-2.38.21-.87,0-1.7-.62-2.48-.58-.71-1.23-1.12-1.97-1.23s-1.6-.02-2.58.25l-1.34.36c-1.34.36-2.49.56-3.43.6-.94.04-1.75-.1-2.44-.42-.69-.32-1.32-.85-1.91-1.57-.69-.86-1.08-1.79-1.16-2.78-.08-.99.14-2,.67-3.03.53-1.02,1.37-2.01,2.54-2.95Z"/><path class="cls-1" d="M207.32,255.7c.74-.46,1.43-.59,2.09-.41s1.25.61,1.78,1.28l.04.07,3.82,6.15c.48.78.93,1.34,1.34,1.67.41.34.83.49,1.27.46.44-.03.94-.22,1.5-.57.38-.23.73-.51,1.07-.84.34-.33.7-.76,1.08-1.3l-1.01,1.38-.82-1.8c-.34-.65-.46-1.18-.36-1.61.11-.43.35-.76.72-.99.71-.44,1.35-.38,1.94.18.46,1.07.44,2.16-.09,3.26-.52,1.11-1.54,2.13-3.06,3.07-1.44.9-2.7,1.22-3.77.96-1.07-.26-2.07-1.13-3-2.64l-3.51-5.65c-.31-.5-.59-.81-.84-.92-.25-.11-.48-.09-.72.06-.16.1-.28.24-.36.43-.08.19-.14.49-.17.89l-.56-.07c-.06-.68.04-1.26.3-1.75.26-.48.69-.91,1.3-1.29ZM213.35,251.92c.91-.56,1.82-.77,2.72-.62.9.15,1.64.68,2.2,1.59.39.62.59,1.25.6,1.89.02.64-.18,1.34-.59,2.11-.41.77-1.07,1.64-1.96,2.61-.48.52-1.02,1.09-1.62,1.72-.6.63-1.14,1.19-1.64,1.68l-.34-.54c.49-.5.97-1.02,1.44-1.54.47-.52.87-.97,1.17-1.35.58-.8.91-1.57,1-2.31.08-.74-.1-1.47-.55-2.19-.41-.66-.88-1.06-1.4-1.19-.52-.13-1.05-.02-1.58.31-.23.14-.45.35-.65.63-.2.28-.39.66-.57,1.16-.18.5-.34,1.16-.5,1.97l-1.06-.93.76-.47c.14-.71.3-1.33.47-1.88.17-.55.42-1.03.74-1.46.32-.43.77-.83,1.35-1.18Z"/><path class="cls-1" d="M194.17,262.61l6.77,5.32-1.26,3.01-8.05-6.17-1.66.59-.32-.7,4.52-2.06ZM201.55,273.42l.32.7-5.92,2.69-.32-.7,2.6-1.49.46-.29,2.86-.91ZM202.41,263.79l.46,1.02-.14.06-2.04,5.36-2.09,5.38-1.35.61,5.15-12.43ZM203.82,258.22l.32.7-2.35,1.35-1.49.68-2.68.94-.32-.7,6.52-2.97ZM202.15,258.98c.11.29.26.65.46,1.11.2.45.41.94.64,1.47.23.53.46,1.04.69,1.55.23.5.43.95.62,1.36l5.42,11.9,1.86-.71.29.63-4.28,3.04-.44-.05-1.59-3.73-4.33-9.51c-.2-.43-.41-.91-.65-1.43s-.48-1.05-.74-1.58c-.25-.54-.49-1.03-.71-1.47-.22-.44-.4-.8-.54-1.07l3.29-1.5Z"/><path class="cls-1" d="M179.88,267.64l.22.73-2.47,1-1.52.45-2.74.55-.22-.73,6.72-2ZM178.22,268.14c.09.42.23.96.42,1.64.19.68.4,1.39.61,2.13.21.74.41,1.41.58,2l.98,3.3c.31,1.03.7,1.7,1.17,2.01s1.01.38,1.61.2c.54-.16,1.09-.53,1.65-1.12.56-.58,1.09-1.42,1.58-2.5l1.02.84-1,.3c-.53,1.33-1.12,2.35-1.77,3.07s-1.46,1.22-2.42,1.51c-1.17.35-2.21.25-3.12-.28s-1.6-1.64-2.1-3.3l-.9-3.03c-.17-.59-.38-1.25-.6-1.99s-.45-1.45-.66-2.12c-.21-.67-.38-1.21-.52-1.61l3.47-1.03ZM188.33,265.13l.22.73-2.52,1.01-1.56.46-2.61.51-.22-.73,6.7-1.99ZM186.6,265.64c.11.41.26.96.45,1.65.19.69.4,1.4.61,2.15.21.74.4,1.4.57,1.97l3.73,12.54,1.94-.44.2.66-4.6,2.41-.38-.13-1.08-3.91-1.51-5.08-.18-.32-1.41-4.74c-.17-.57-.37-1.22-.6-1.96s-.45-1.45-.67-2.13c-.22-.68-.4-1.22-.54-1.62l3.47-1.03Z"/><path class="cls-1" d="M160.36,271.32c.86-.14,1.55,0,2.08.43.53.42.92,1.05,1.15,1.87v.08s1.15,7.15,1.15,7.15c.15.91.34,1.59.59,2.06.25.47.58.77,1,.91.42.14.95.16,1.61.05.44-.07.87-.19,1.31-.36.44-.17.94-.43,1.5-.78l-1.46.88-.06-1.98c-.06-.73.03-1.27.3-1.62s.61-.56,1.05-.63c.82-.13,1.4.17,1.72.91.01,1.17-.43,2.16-1.34,2.98-.91.82-2.25,1.37-4.01,1.65-1.68.27-2.96.08-3.85-.57-.89-.65-1.47-1.85-1.75-3.59l-1.05-6.57c-.09-.59-.23-.98-.42-1.17-.19-.19-.41-.27-.68-.23-.19.03-.35.12-.5.26-.15.14-.32.39-.5.75l-.48-.28c.21-.65.52-1.15.95-1.49s.99-.57,1.7-.68ZM167.38,270.18c1.06-.17,1.97,0,2.75.48.77.49,1.25,1.26,1.42,2.32.12.72.06,1.38-.17,1.98-.23.6-.69,1.17-1.37,1.72-.68.55-1.62,1.1-2.82,1.65-.64.29-1.36.61-2.16.96s-1.52.66-2.16.91l-.1-.63c.64-.27,1.29-.56,1.93-.86.64-.3,1.17-.56,1.6-.78.85-.51,1.45-1.1,1.81-1.75.36-.65.47-1.4.34-2.24-.12-.77-.4-1.32-.83-1.64-.43-.32-.95-.43-1.58-.33-.27.04-.55.15-.84.33-.29.18-.61.46-.97.85-.36.39-.77.94-1.22,1.63l-.62-1.27.88-.14c.4-.6.79-1.12,1.16-1.55.37-.44.79-.79,1.25-1.06.46-.27,1.03-.46,1.7-.57Z"/><path class="cls-1" d="M156.3,272.12l.05.76-2.81.43-1.6.1-2.99-.07-.05-.76,7.4-.46ZM154.39,272.24c.02.59.05,1.23.08,1.91s.07,1.37.1,2.08c.04.71.07,1.37.11,2l.81,13.05h1.99s.04.69.04.69l-5.08,1.31-.4-.21-.15-4.05-.66-10.58c-.04-.63-.08-1.29-.14-2-.05-.7-.11-1.39-.17-2.07-.06-.68-.12-1.31-.17-1.9l3.61-.22Z"/><path class="cls-1" d="M146.95,272.62v.76s-2.74.23-2.74.23l-1.58-.02-2.75-.28v-.76s7.07.08,7.07.08ZM143.31,289.28c.53,0,.98.18,1.36.54.38.35.56.81.56,1.37,0,.53-.2.96-.59,1.31-.39.34-.84.51-1.37.51-.53,0-.98-.18-1.36-.54-.38-.35-.57-.79-.56-1.32,0-.56.2-1.01.59-1.36.38-.34.84-.51,1.37-.51ZM145.14,272.6c-.02.42-.04.99-.06,1.71-.02.71-.03,1.46-.05,2.23-.02.77-.03,1.46-.04,2.05l-.02,1.86c0,.85-.01,1.58-.01,2.19,0,.61.02,1.22.04,1.84l2.01.2v.61s-5.3,1.29-5.3,1.29l-.33-.21.14-3.92.04-3.9c0-.59,0-1.28,0-2.05,0-.77,0-1.52-.02-2.23,0-.71-.02-1.28-.03-1.71l3.59.04Z"/><path class="cls-1" d="M129.12,271.61l-.09.76-2.66-.06-1.59-.19-2.71-.57.09-.76,6.96.82ZM127.37,271.4c-.07.42-.15.98-.24,1.68-.09.7-.19,1.43-.28,2.2-.1.77-.18,1.45-.26,2.06l-.4,3.42c-.12,1.06-.05,1.83.23,2.3.28.47.74.74,1.38.82.51.06,1.15-.07,1.94-.37.79-.31,1.63-.88,2.51-1.69l-.03,1.1-.38-.04c-1.08,1.09-2.08,1.81-2.99,2.18-.91.36-1.82.49-2.73.39-1.18-.14-2.08-.64-2.69-1.5-.61-.86-.82-2.12-.62-3.79l.37-3.19c.07-.61.15-1.3.23-2.07s.16-1.5.22-2.21.11-1.27.15-1.69l3.57.42ZM137.85,272.63l-.09.76-2.71-.06-1.59-.19-2.65-.57.09-.76,6.96.82ZM136.08,272.43c-.08.42-.17.98-.26,1.69-.09.71-.19,1.45-.29,2.21-.1.77-.18,1.45-.25,2.04l-.22,1.9c-.1.84-.17,1.55-.22,2.12-.05.57-.09,1.17-.13,1.79l1.95.41-.07.61-5.13.81-.31-.24.14-2.91v-.05s.57-4.84.57-4.84c.07-.59.15-1.27.23-2.04.08-.77.16-1.51.23-2.22.08-.71.13-1.28.16-1.7l3.59.42Z"/><path class="cls-1" d="M109.52,267.58l-.28.9-8.82-2.79,1.97-.23-2.84,4.69-1.24-.39,1.67-5.19,9.55,3.02ZM108.17,286.08l-.25.8-8.29-2.62.25-.8,3.88.85.8.25,3.61,1.52ZM111.32,268.14c-.47,1.37-.92,2.73-1.35,4.09-.43,1.36-.83,2.63-1.21,3.82l-.52,1.65c-.45,1.41-.89,2.82-1.34,4.23-.45,1.41-.87,2.82-1.28,4.22l-3.57-1.13c.45-1.37.9-2.76,1.35-4.16.45-1.4.89-2.77,1.31-4.12l.48-1.53c.4-1.28.82-2.62,1.25-4,.43-1.39.86-2.79,1.29-4.2l3.57,1.13ZM113.61,268.87l-.28.79-3.8-.83-.36-.12.36-1.14,4.08,1.29Z"/><path class="cls-1" d="M88.18,277.55c.48.21.83.55,1.04,1.02.21.47.21.96-.02,1.48-.21.48-.56.81-1.05.98-.49.17-.98.15-1.46-.06-.48-.21-.83-.55-1.04-1.02-.21-.47-.21-.95,0-1.43.22-.51.58-.86,1.07-1.02.49-.17.98-.15,1.46.06ZM96.34,262.89c-.18.38-.42.9-.71,1.55-.29.65-.59,1.33-.91,2.04-.31.71-.59,1.33-.83,1.88l-.74,1.71c-.34.78-.62,1.45-.86,2.02-.24.57-.46,1.13-.67,1.71l1.78.96-.24.56-5.38-.86-.22-.32,1.66-3.56,1.55-3.58c.24-.55.5-1.17.81-1.89.3-.71.58-1.4.85-2.06.27-.66.48-1.19.63-1.59l3.3,1.43ZM98,263.61l-.31.7-2.6-.85-1.45-.63-2.42-1.33.3-.7,6.48,2.81Z"/><path class="cls-1" d="M88.11,259.11c-.49.86-.98,1.73-1.46,2.62-.48.89-.95,1.77-1.41,2.64l-3.12,5.88,1.89,1-.38.72-3.11-1.27h1.36s-.16.23-.16.23c-.86,1.37-1.7,2.37-2.51,3-.81.63-1.63,1.04-2.45,1.24-.85.22-1.64.28-2.39.18-.74-.1-1.44-.33-2.1-.68-.63-.33-1.14-.75-1.53-1.26-.39-.5-.51-1.06-.35-1.67.21-.37.51-.61.9-.74.38-.12.81-.06,1.27.18.39.21.69.5.89.89.2.38.31.93.32,1.63l.1,1.18-.11.2-1.06-.56.1-.18c.41.14.82.19,1.23.16.41-.03.78-.14,1.1-.31.45-.28.89-.64,1.3-1.09.41-.45.82-1.01,1.21-1.69.4-.68.82-1.49,1.26-2.43l3.29-6.22c.46-.87.92-1.76,1.38-2.66s.9-1.8,1.33-2.68l3.2,1.69ZM80.57,269.42l-.48.9-4.57-2.42.48-.9,4.57,2.42ZM89.8,260l-.36.68-2.67-1.12-1.89-1-2.45-1.59.36-.68,7,3.71Z"/><path class="cls-1" d="M74.74,250.75c1.13.75,1.98,1.66,2.56,2.71.58,1.05.81,2.19.71,3.43-.1,1.24-.59,2.51-1.45,3.81-.85,1.27-1.84,2.18-2.98,2.72-1.14.54-2.29.75-3.48.64-1.18-.11-2.27-.5-3.26-1.16-1.05-.7-1.79-1.49-2.22-2.39-.44-.89-.6-1.81-.49-2.76.11-.95.46-1.86,1.04-2.74.33-.5.66-.9.99-1.21l9.14,6.1-.5.74-5.41-3.61c-.45-.3-.84-.38-1.17-.25s-.68.49-1.06,1.06c-.62.93-.91,1.79-.85,2.56.06.77.42,1.39,1.1,1.84.47.31,1.02.42,1.65.33s1.31-.42,2.03-1c.72-.58,1.47-1.44,2.23-2.59.77-1.16,1.25-2.22,1.42-3.18.17-.96.08-1.8-.26-2.52-.35-.72-.89-1.33-1.62-1.82-.75-.5-1.48-.78-2.18-.84s-1.41.03-2.12.27l-.2-.53c1-.56,2.05-.81,3.14-.76,1.09.05,2.16.43,3.22,1.14Z"/><path class="cls-1" d="M58.93,238c.75.71,1.41,1.53,1.98,2.44.56.91.94,1.78,1.13,2.62l-2.99,2.93-.98-.93,2.39-4.37.67,1.55-.46.9c-.2-1-.46-1.8-.79-2.39-.33-.59-.81-1.17-1.43-1.76-.94-.89-1.87-1.37-2.81-1.45s-1.77.27-2.51,1.05c-.41.43-.69.87-.85,1.3-.16.44-.19.93-.1,1.49.09.56.31,1.22.64,1.98l.5,1.18c.68,1.65,1.02,3.11,1.01,4.36,0,1.26-.52,2.42-1.52,3.47-.77.81-1.63,1.31-2.58,1.47-.95.17-1.92.06-2.91-.34-1-.39-1.96-1.03-2.88-1.91-.73-.69-1.31-1.41-1.74-2.16-.43-.75-.74-1.52-.9-2.31l2.87-2.76.98.93-2.25,4.19-.73-1.68.56-.88c.12.91.29,1.62.52,2.14.22.52.59,1.02,1.11,1.51.83.78,1.69,1.22,2.58,1.32.89.1,1.68-.22,2.37-.95.63-.67.95-1.37.95-2.12,0-.75-.19-1.59-.59-2.53l-.54-1.28c-.54-1.28-.89-2.39-1.05-3.32-.16-.93-.13-1.75.1-2.47.23-.72.66-1.42,1.31-2.1.76-.8,1.63-1.31,2.6-1.52s2-.12,3.09.26c1.08.39,2.17,1.09,3.26,2.12Z"/><path class="cls-1" d="M48.86,227.48c.79.92,1.16,1.81,1.11,2.68s-.57,1.73-1.56,2.58c-.36.31-.69.59-.98.83-.3.24-.64.53-1.02.86l-5.04,4.34,1.45,1.68-.62.53-2.02-1.96.57.15-4.07,1.95-1.45-1.68,3.45-2.9.19-.17,7.44-6.4c.54-.47.84-.92.9-1.36.06-.44-.09-.86-.43-1.26-.22-.26-.47-.45-.74-.57-.27-.12-.62-.23-1.03-.32l.08-.57c.68-.12,1.34-.05,1.97.2s1.24.71,1.81,1.38ZM40.22,237.46l-.77.67-3.28-3.81.77-.67,3.27,3.81Z"/><path class="cls-1" d="M41.63,218.02c.76,1.1,1.2,2.25,1.31,3.45.11,1.19-.11,2.34-.67,3.44-.56,1.1-1.46,2.08-2.71,2.94-1.24.86-2.49,1.34-3.72,1.43-1.24.09-2.39-.13-3.46-.68-1.07-.54-1.95-1.33-2.66-2.34-.71-1.03-1.14-2.14-1.28-3.33-.14-1.19.05-2.34.58-3.47.52-1.13,1.41-2.12,2.67-2.99,1.24-.86,2.49-1.36,3.73-1.49,1.24-.13,2.39.06,3.46.6,1.07.53,1.99,1.35,2.75,2.45ZM40.94,218.5c-.59-.85-1.49-1.21-2.69-1.07s-2.68.81-4.43,2.02c-1.76,1.22-2.91,2.36-3.46,3.43-.54,1.07-.52,2.03.07,2.88.58.84,1.47,1.2,2.66,1.07,1.2-.12,2.67-.79,4.43-2.01,1.75-1.21,2.9-2.35,3.45-3.44.55-1.08.54-2.04-.04-2.88Z"/><path class="cls-1" d="M26.57,209.72l-.98,1.47-.32-.61c-.95.21-1.81.27-2.59.18-.78-.1-1.46-.31-2.02-.66-.57-.34-.98-.76-1.24-1.26-.26-.5-.38-.99-.36-1.5.02-.5.28-.95.78-1.35.49-.24.95-.32,1.38-.25.44.08.79.37,1.06.88.2.38.27.75.2,1.14-.07.38-.2.81-.41,1.29l-.33.84-.3-.88c.67.46,1.4.74,2.21.86.81.12,1.78.07,2.93-.16ZM35.42,209.01c-.39.17-.9.42-1.54.75-.63.33-1.29.67-1.98,1.02-.69.36-1.29.67-1.82.95l-1.69.9c-.77.41-1.39.75-1.88,1.03-.49.28-1,.58-1.54.9l.77,1.84-.54.29-3.58-3.76.02-.39,3.12-1.89h.02s3.67-1.96,3.67-1.96c.53-.28,1.13-.6,1.81-.97s1.33-.73,1.96-1.07c.63-.34,1.12-.62,1.49-.83l1.7,3.2ZM36.27,210.6l-.68.36-1.54-2.3-1.04-1.96-1.07-2.61.68-.36,3.64,6.87Z"/><path class="cls-1" d="M15.02,195.77l-.69.27-1.92-4.86.69-.27,1.03,1.84.16.4.73,2.62ZM36.05,195.04c.24.62.32,1.23.22,1.84s-.4,1.04-.91,1.28c-.49.1-.92.02-1.28-.25s-.62-.61-.79-1.02c-.17-.43-.21-.85-.11-1.26.09-.41.25-.84.48-1.27l.57-1.05.85.62-.22.63c-.62-.63-1.39-1.07-2.33-1.32-.94-.24-2.1-.37-3.5-.39l-2.01-.03h-.65s-6.5.19-6.5.19l-6.59.38-.38-.97,15.74-.32c1.53-.02,2.79.08,3.8.29,1.01.21,1.79.54,2.36.97.56.43.98.98,1.24,1.65ZM18.59,204.83l-.69.27-2.67-6.76.69-.27,1.18,2.22.8,2.04.68,2.5ZM29.58,192.46l-12.06,11.66-1.38-3.49,8.92-7.88.21-.25,4.31-.06Z"/><path class="cls-1" d="M22.61,177.48l-19.84-2.68-.42-2.2,17.46-9.87.68,3.61-15.43,8.39-.09-.5h.36s17.04,2.03,17.04,2.03l.23,1.23ZM16.05,175.86l-.89-.04-1.5-7.94.82-.34,1.57,8.32ZM21.05,169.24l-.83.16-.99-3.31-.24-1.25-.31-3.55.83-.16,1.54,8.12ZM22.94,179.23l-.83.16-.8-2.44-.09-.45-.19-2.79.83-.16,1.08,5.69Z"/><path class="cls-1" d="M11.12,154.79l-1.5.93-.04-.69c-.95-.2-1.76-.5-2.43-.92-.67-.41-1.19-.89-1.57-1.44-.37-.55-.58-1.1-.61-1.66-.03-.56.06-1.06.29-1.51.23-.45.65-.75,1.27-.91.54-.02,1,.1,1.36.35.36.25.56.67.6,1.24.03.42-.07.8-.29,1.12-.22.32-.52.65-.91,1l-.65.62.1-.92c.42.69.96,1.26,1.65,1.7.68.44,1.59.8,2.73,1.08ZM19.47,157.82c-.43,0-1,0-1.71.04-.71.03-1.46.07-2.23.11-.77.04-1.46.07-2.05.11l-1.91.11c-.87.05-1.58.1-2.14.15-.56.05-1.15.11-1.78.18l-.06,2-.61.04-1.7-4.91.18-.34,3.63-.42h.03s4.15-.25,4.15-.25c.59-.04,1.28-.08,2.05-.13.77-.05,1.51-.11,2.22-.16s1.28-.1,1.7-.14l.21,3.61ZM19.58,159.63l-.76.04-.44-2.73-.13-2.21.12-2.82.76-.05.46,7.76Z"/><path class="cls-1" d="M19.63,139.71c-.06,1.27-.39,2.41-.99,3.42s-1.43,1.79-2.5,2.34c-1.07.55-2.37.79-3.88.71-1.61-.08-2.95-.48-4.02-1.21-1.07-.73-1.86-1.66-2.38-2.81-.51-1.15-.73-2.39-.67-3.71.04-.87.25-1.65.62-2.36.37-.7.85-1.28,1.44-1.71s1.27-.71,2.02-.8c.77.28,1.13.8,1.1,1.56-.02.46-.2.85-.52,1.17-.32.32-.87.48-1.63.48l-2.39.34,1.21-1.68c-.31.48-.54.93-.69,1.34-.15.42-.23.85-.26,1.29-.04.8.17,1.52.62,2.18.45.65,1.12,1.18,2.01,1.58s1.98.64,3.27.7c1.87.09,3.33-.26,4.39-1.06s1.63-1.9,1.7-3.31c.04-.75-.09-1.44-.38-2.07-.29-.63-.72-1.21-1.29-1.71l.35-.44c1.04.66,1.79,1.45,2.27,2.36.47.91.68,2.04.61,3.4Z"/><path class="cls-1" d="M19.98,130.11c-.41-.09-.97-.21-1.67-.34s-1.43-.28-2.19-.42c-.76-.15-1.43-.27-2.02-.38l-12.87-2.33-.48,1.93-.68-.12-.07-5.19.29-.29,3.98.8,5.22.94h.36s4.87.87,4.87.87c.58.11,1.26.22,2.02.35.76.13,1.5.25,2.2.36.71.11,1.27.19,1.69.25l-.64,3.56ZM21.53,121.5c-.41-.11-.96-.23-1.66-.36-.69-.13-1.42-.27-2.18-.42s-1.44-.27-2.04-.38l-3.39-.61c-1.05-.19-1.83-.14-2.32.14s-.79.73-.9,1.35c-.1.55-.02,1.21.25,1.98s.77,1.61,1.52,2.54l-1.21.53.19-1.03c-.95-1.07-1.59-2.06-1.94-2.97-.34-.91-.43-1.86-.25-2.84.22-1.2.77-2.09,1.66-2.65.89-.56,2.19-.69,3.89-.38l3.11.56c.6.11,1.28.23,2.05.36.76.13,1.49.25,2.19.37.7.12,1.25.21,1.68.26l-.64,3.56ZM19.66,131.89l-.75-.14.23-2.7.29-1.61.72-2.56.75.14-1.24,6.87ZM21.23,123.21l-.75-.14.22-2.65.28-1.55.75-2.69.75.14-1.25,6.9Z"/><path class="cls-1" d="M8.13,106.4c-.15.51-.44.89-.89,1.16s-.93.32-1.47.17c-.5-.15-.87-.46-1.1-.92s-.26-.95-.12-1.46c.15-.5.45-.89.89-1.16.44-.27.92-.33,1.42-.18.54.16.92.47,1.15.94.23.46.27.95.12,1.46ZM23.68,112.7c-.4-.14-.95-.31-1.63-.52-.68-.21-1.39-.43-2.13-.65-.74-.23-1.39-.42-1.97-.59l-1.79-.53c-.82-.24-1.52-.44-2.11-.61-.59-.16-1.18-.32-1.78-.46l-.74,1.88-.59-.17.19-5.44.29-.26,3.74,1.21,3.74,1.1c.57.17,1.23.36,1.97.57.75.21,1.46.41,2.15.59.69.18,1.24.33,1.65.43l-1.02,3.45ZM23.17,114.43l-.73-.21.52-2.69.45-1.52,1.02-2.57.73.22-1.99,6.77Z"/><path class="cls-1" d="M13.29,101.98l-.71-.29,2.73-6.79.71.29-.75,2.61-.8,1.99-1.18,2.19ZM27.82,100.63l-14.83.05,1.4-3.48,11.84.28-.2.5-.28-.25-8.6-7.39.43-1.06,10.81,9.95-.56,1.4ZM16.96,92.85l-.71-.29,1.86-4.61.71.29-.51,2.02-.19.47-1.15,2.12Z"/><path class="cls-1" d="M35.21,85.78c-.65,1.19-1.48,2.12-2.47,2.79-1,.67-2.12,1-3.36,1.01-1.24,0-2.55-.37-3.92-1.12-1.34-.74-2.33-1.65-2.96-2.73-.64-1.09-.95-2.22-.94-3.41.01-1.19.3-2.3.88-3.34.61-1.1,1.33-1.91,2.19-2.42.85-.51,1.76-.75,2.71-.72.95.03,1.89.3,2.82.8.52.29.95.58,1.29.88l-5.29,9.63-.78-.43,3.13-5.7c.26-.48.31-.87.14-1.19-.17-.31-.55-.63-1.14-.96-.98-.54-1.86-.75-2.62-.63-.76.12-1.34.54-1.74,1.26-.27.49-.33,1.05-.19,1.67.14.62.53,1.27,1.17,1.94.64.67,1.56,1.34,2.77,2,1.22.67,2.32,1.05,3.29,1.14.97.09,1.8-.07,2.49-.48.69-.41,1.25-1,1.67-1.77.43-.79.65-1.54.65-2.25,0-.71-.15-1.41-.45-2.09l.51-.24c.64.95.98,1.97,1.02,3.06.04,1.09-.24,2.19-.86,3.31Z"/></g></svg>